%TF.GenerationSoftware,KiCad,Pcbnew,7.0.9*%
%TF.CreationDate,2025-08-15T16:53:55+02:00*%
%TF.ProjectId,Kicad_Projet_Sons_HW896_V2,4b696361-645f-4507-926f-6a65745f536f,rev?*%
%TF.SameCoordinates,Original*%
%TF.FileFunction,Copper,L1,Top*%
%TF.FilePolarity,Positive*%
%FSLAX46Y46*%
G04 Gerber Fmt 4.6, Leading zero omitted, Abs format (unit mm)*
G04 Created by KiCad (PCBNEW 7.0.9) date 2025-08-15 16:53:55*
%MOMM*%
%LPD*%
G01*
G04 APERTURE LIST*
%TA.AperFunction,ComponentPad*%
%ADD10C,5.600000*%
%TD*%
%TA.AperFunction,ComponentPad*%
%ADD11C,1.650000*%
%TD*%
%TA.AperFunction,SMDPad,CuDef*%
%ADD12R,1.850000X3.500000*%
%TD*%
%TA.AperFunction,ComponentPad*%
%ADD13R,1.357000X1.357000*%
%TD*%
%TA.AperFunction,ComponentPad*%
%ADD14C,1.357000*%
%TD*%
%TA.AperFunction,ComponentPad*%
%ADD15O,1.900000X2.500000*%
%TD*%
%TA.AperFunction,ComponentPad*%
%ADD16R,1.900000X2.500000*%
%TD*%
%TA.AperFunction,ComponentPad*%
%ADD17R,1.800000X1.800000*%
%TD*%
%TA.AperFunction,ComponentPad*%
%ADD18C,1.800000*%
%TD*%
%TA.AperFunction,ComponentPad*%
%ADD19R,2.200000X2.200000*%
%TD*%
%TA.AperFunction,ComponentPad*%
%ADD20O,2.200000X2.200000*%
%TD*%
%TA.AperFunction,SMDPad,CuDef*%
%ADD21R,2.000000X4.100000*%
%TD*%
%TA.AperFunction,ComponentPad*%
%ADD22R,1.700000X1.700000*%
%TD*%
%TA.AperFunction,ComponentPad*%
%ADD23O,1.700000X1.700000*%
%TD*%
%TA.AperFunction,ComponentPad*%
%ADD24C,2.000000*%
%TD*%
%TA.AperFunction,ComponentPad*%
%ADD25C,1.600000*%
%TD*%
%TA.AperFunction,ComponentPad*%
%ADD26R,1.308000X1.308000*%
%TD*%
%TA.AperFunction,ComponentPad*%
%ADD27C,1.308000*%
%TD*%
%TA.AperFunction,ViaPad*%
%ADD28C,0.800000*%
%TD*%
%TA.AperFunction,Conductor*%
%ADD29C,0.250000*%
%TD*%
G04 APERTURE END LIST*
D10*
%TO.P,REF\u002A\u002A,1*%
%TO.N,N/C*%
X114270000Y-104150000D03*
%TD*%
%TO.P,REF\u002A\u002A,1*%
%TO.N,N/C*%
X180310000Y-104150000D03*
%TD*%
%TO.P,REF\u002A\u002A,1*%
%TO.N,N/C*%
X180310000Y-47000000D03*
%TD*%
%TO.P,REF\u002A\u002A,1*%
%TO.N,N/C*%
X114270000Y-47000000D03*
%TD*%
D11*
%TO.P,J6,1,1*%
%TO.N,SPK+*%
X171420000Y-69940000D03*
%TO.P,J6,2,2*%
%TO.N,SPK-*%
X171420000Y-74940000D03*
%TD*%
%TO.P,J5,1,1*%
%TO.N,Net-(U2-K5)*%
X171420000Y-87640000D03*
%TO.P,J5,2,2*%
%TO.N,GND*%
X171420000Y-82640000D03*
%TD*%
%TO.P,J4,1,1*%
%TO.N,Net-(U2-K3)*%
X167690000Y-97800000D03*
%TO.P,J4,2,2*%
%TO.N,Net-(U2-K4)*%
X172690000Y-97800000D03*
%TD*%
%TO.P,J2,1,1*%
%TO.N,Net-(U2-K1)*%
X154860000Y-97800000D03*
%TO.P,J2,2,2*%
%TO.N,Net-(U2-K2)*%
X159860000Y-97800000D03*
%TD*%
%TO.P,J1,1,1*%
%TO.N,Net-(D1-A)*%
X146730000Y-97850000D03*
%TO.P,J1,2,2*%
%TO.N,GND*%
X141730000Y-97850000D03*
%TD*%
D12*
%TO.P,C4,1,+*%
%TO.N,+4V*%
X148450000Y-81670000D03*
%TO.P,C4,2,-*%
%TO.N,GND*%
X148450000Y-87070000D03*
%TD*%
D13*
%TO.P,C1,1,1*%
%TO.N,Net-(C2-+)*%
X117020000Y-87290000D03*
D14*
%TO.P,C1,2,2*%
%TO.N,GND*%
X122100000Y-87290000D03*
%TD*%
D15*
%TO.P,U1,3,VO*%
%TO.N,Net-(D2-A)*%
X131440000Y-86190000D03*
%TO.P,U1,2,GND*%
%TO.N,GND*%
X128900000Y-86190000D03*
D16*
%TO.P,U1,1,VI*%
%TO.N,Net-(C2-+)*%
X126360000Y-86190000D03*
%TD*%
D17*
%TO.P,D3,1,K*%
%TO.N,GND*%
X133320000Y-92720000D03*
D18*
%TO.P,D3,2,A*%
%TO.N,Net-(D3-A)*%
X135860000Y-92720000D03*
%TD*%
D19*
%TO.P,D1,1,K*%
%TO.N,Net-(C2-+)*%
X156180000Y-78000000D03*
D20*
%TO.P,D1,2,A*%
%TO.N,Net-(D1-A)*%
X156180000Y-88160000D03*
%TD*%
D21*
%TO.P,C2,1,+*%
%TO.N,Net-(C2-+)*%
X124150000Y-94395000D03*
%TO.P,C2,2,-*%
%TO.N,GND*%
X124150000Y-103095000D03*
%TD*%
D22*
%TO.P,J3,1,Pin_1*%
%TO.N,Dac_L*%
X168880000Y-45730000D03*
D23*
%TO.P,J3,2,Pin_2*%
%TO.N,Dac_R*%
X168880000Y-48270000D03*
%TO.P,J3,3,Pin_3*%
%TO.N,ADKEY*%
X168880000Y-50810000D03*
%TO.P,J3,4,Pin_4*%
%TO.N,Busy*%
X168880000Y-53350000D03*
%TO.P,J3,5,Pin_5*%
%TO.N,TX*%
X168880000Y-55890000D03*
%TO.P,J3,6,Pin_6*%
%TO.N,RX*%
X168880000Y-58430000D03*
%TO.P,J3,7,Pin_7*%
%TO.N,GND*%
X168880000Y-60970000D03*
%TO.P,J3,8,Pin_8*%
X168880000Y-63510000D03*
%TD*%
D24*
%TO.P,R1,1*%
%TO.N,Net-(D2-A)*%
X134590000Y-97800000D03*
%TO.P,R1,2*%
%TO.N,Net-(D3-A)*%
X134590000Y-105420000D03*
%TD*%
D25*
%TO.P,C3,1*%
%TO.N,Net-(D2-A)*%
X138400000Y-86360000D03*
%TO.P,C3,2*%
%TO.N,GND*%
X140900000Y-86360000D03*
%TD*%
D26*
%TO.P,U2,1,K1*%
%TO.N,Net-(U2-K1)*%
X145470000Y-52520000D03*
D27*
%TO.P,U2,2,K2*%
%TO.N,Net-(U2-K2)*%
X145470000Y-55060000D03*
%TO.P,U2,3,K3*%
%TO.N,Net-(U2-K3)*%
X145470000Y-57600000D03*
%TO.P,U2,4,K4*%
%TO.N,Net-(U2-K4)*%
X145470000Y-60140000D03*
%TO.P,U2,5,K5*%
%TO.N,Net-(U2-K5)*%
X145470000Y-62680000D03*
%TO.P,U2,6,SGND*%
%TO.N,GND*%
X145470000Y-65220000D03*
%TO.P,U2,7,ADKEY*%
%TO.N,ADKEY*%
X145470000Y-67760000D03*
%TO.P,U2,8,Busy*%
%TO.N,Busy*%
X145470000Y-70300000D03*
%TO.P,U2,9,RX*%
%TO.N,RX*%
X160710000Y-70300000D03*
%TO.P,U2,10,TX*%
%TO.N,TX*%
X160710000Y-67760000D03*
%TO.P,U2,11,GND*%
%TO.N,GND*%
X160710000Y-65220000D03*
%TO.P,U2,12,VCC*%
%TO.N,+4V*%
X160710000Y-62680000D03*
%TO.P,U2,13,Dac_R*%
%TO.N,Dac_R*%
X160710000Y-60140000D03*
%TO.P,U2,14,Dac_L*%
%TO.N,Dac_L*%
X160710000Y-57600000D03*
%TO.P,U2,15,SPK-*%
%TO.N,SPK-*%
X160710000Y-55060000D03*
%TO.P,U2,16,SPK+*%
%TO.N,SPK+*%
X160710000Y-52520000D03*
%TD*%
D19*
%TO.P,D2,1,K*%
%TO.N,+4V*%
X161260000Y-78000000D03*
D20*
%TO.P,D2,2,A*%
%TO.N,Net-(D2-A)*%
X161260000Y-88160000D03*
%TD*%
D28*
%TO.N,GND*%
X125755200Y-102815100D03*
X146899400Y-87019100D03*
%TD*%
D29*
%TO.N,ADKEY*%
X171242200Y-50810000D02*
X168880000Y-50810000D01*
X171267600Y-50784600D02*
X171242200Y-50810000D01*
X171267600Y-44460000D02*
X171267600Y-50784600D01*
X171039000Y-44460000D02*
X171267600Y-44460000D01*
X170302400Y-43723400D02*
X171039000Y-44460000D01*
X167127400Y-43723400D02*
X170302400Y-43723400D01*
X166416200Y-44434600D02*
X167127400Y-43723400D01*
X166416200Y-47609600D02*
X166416200Y-44434600D01*
X165730400Y-48295400D02*
X166416200Y-47609600D01*
X159507400Y-48295400D02*
X165730400Y-48295400D01*
X157856400Y-49946400D02*
X159507400Y-48295400D01*
X157856400Y-56728200D02*
X157856400Y-49946400D01*
X157221400Y-57363200D02*
X157856400Y-56728200D01*
X155866800Y-57363200D02*
X157221400Y-57363200D01*
X145470000Y-67760000D02*
X155866800Y-57363200D01*
%TO.N,Dac_L*%
X158720000Y-51358500D02*
X160710000Y-49368500D01*
X158720000Y-55890000D02*
X158720000Y-51358500D01*
X168880000Y-46538000D02*
X168880000Y-45730000D01*
X160430000Y-57600000D02*
X158720000Y-55890000D01*
X160710000Y-49368500D02*
X166049500Y-49368500D01*
X166049500Y-49368500D02*
X168880000Y-46538000D01*
X160710000Y-57600000D02*
X160430000Y-57600000D01*
%TO.N,Net-(C2-+)*%
X156180000Y-76210000D02*
X156180000Y-78000000D01*
X144750000Y-76210000D02*
X156180000Y-76210000D01*
X142210000Y-52080000D02*
X142210000Y-73670000D01*
X140940000Y-50810000D02*
X142210000Y-52080000D01*
X116810000Y-50810000D02*
X140940000Y-50810000D01*
X114270000Y-82560000D02*
X114270000Y-53350000D01*
X114270000Y-53350000D02*
X116810000Y-50810000D01*
X142210000Y-73670000D02*
X144750000Y-76210000D01*
X124430000Y-83830000D02*
X115540000Y-83830000D01*
X126360000Y-85760000D02*
X124430000Y-83830000D01*
X126360000Y-86190000D02*
X126360000Y-85760000D01*
X115540000Y-83830000D02*
X114270000Y-82560000D01*
%TO.N,RX*%
X168578700Y-59605300D02*
X168880000Y-59605300D01*
X167704700Y-60479300D02*
X168578700Y-59605300D01*
X167704700Y-63305300D02*
X167704700Y-60479300D01*
X160710000Y-70300000D02*
X167704700Y-63305300D01*
X168880000Y-58430000D02*
X168880000Y-59605300D01*
%TO.N,TX*%
X168512700Y-57065300D02*
X168880000Y-57065300D01*
X167135900Y-58442100D02*
X168512700Y-57065300D01*
X167135900Y-61334100D02*
X167135900Y-58442100D01*
X160710000Y-67760000D02*
X167135900Y-61334100D01*
X168880000Y-55890000D02*
X168880000Y-57065300D01*
%TO.N,Busy*%
X168880000Y-53350000D02*
X168880000Y-54525300D01*
X168421700Y-54525300D02*
X168880000Y-54525300D01*
X161261900Y-61685100D02*
X168421700Y-54525300D01*
X154084900Y-61685100D02*
X161261900Y-61685100D01*
X145470000Y-70300000D02*
X154084900Y-61685100D01*
%TO.N,Dac_R*%
X168880000Y-48270000D02*
X168880000Y-49445300D01*
X166804100Y-54045900D02*
X160710000Y-60140000D01*
X166804100Y-51219900D02*
X166804100Y-54045900D01*
X168578700Y-49445300D02*
X166804100Y-51219900D01*
X168880000Y-49445300D02*
X168578700Y-49445300D01*
%TO.N,Net-(D1-A)*%
X154994700Y-89585300D02*
X146730000Y-97850000D01*
X156180000Y-89585300D02*
X154994700Y-89585300D01*
X156180000Y-88160000D02*
X156180000Y-89585300D01*
%TO.N,+4V*%
X156164700Y-81670000D02*
X148450000Y-81670000D01*
X159834700Y-78000000D02*
X156164700Y-81670000D01*
X161260000Y-78000000D02*
X159834700Y-78000000D01*
%TO.N,Net-(D2-A)*%
X161260000Y-88160000D02*
X159834700Y-88160000D01*
X131440000Y-86190000D02*
X132715300Y-86190000D01*
X156647200Y-84972500D02*
X159834700Y-88160000D01*
X139787500Y-84972500D02*
X156647200Y-84972500D01*
X138400000Y-86360000D02*
X139787500Y-84972500D01*
X134590000Y-97800000D02*
X134590000Y-86360000D01*
X132885300Y-86360000D02*
X134590000Y-86360000D01*
X132715300Y-86190000D02*
X132885300Y-86360000D01*
X134590000Y-86360000D02*
X138400000Y-86360000D01*
%TO.N,Net-(C2-+)*%
X117020000Y-87290000D02*
X118023800Y-87290000D01*
X124150000Y-94395000D02*
X124150000Y-92019700D01*
X124150000Y-92019700D02*
X124150000Y-86258700D01*
X124218700Y-86190000D02*
X124150000Y-86258700D01*
X126360000Y-86190000D02*
X124218700Y-86190000D01*
X119055100Y-86258700D02*
X118023800Y-87290000D01*
X124150000Y-86258700D02*
X119055100Y-86258700D01*
%TO.N,GND*%
X124150000Y-103095000D02*
X125475300Y-103095000D01*
X125755200Y-102815100D02*
X125475300Y-103095000D01*
X148450000Y-87070000D02*
X147199700Y-87070000D01*
X147148800Y-87019100D02*
X147199700Y-87070000D01*
X146899400Y-87019100D02*
X147148800Y-87019100D01*
%TD*%
M02*
