%TF.GenerationSoftware,KiCad,Pcbnew,7.0.9*%
%TF.CreationDate,2025-08-15T16:53:55+02:00*%
%TF.ProjectId,Kicad_Projet_Sons_HW896_V2,4b696361-645f-4507-926f-6a65745f536f,rev?*%
%TF.SameCoordinates,Original*%
%TF.FileFunction,Soldermask,Top*%
%TF.FilePolarity,Negative*%
%FSLAX46Y46*%
G04 Gerber Fmt 4.6, Leading zero omitted, Abs format (unit mm)*
G04 Created by KiCad (PCBNEW 7.0.9) date 2025-08-15 16:53:55*
%MOMM*%
%LPD*%
G01*
G04 APERTURE LIST*
G04 Aperture macros list*
%AMRoundRect*
0 Rectangle with rounded corners*
0 $1 Rounding radius*
0 $2 $3 $4 $5 $6 $7 $8 $9 X,Y pos of 4 corners*
0 Add a 4 corners polygon primitive as box body*
4,1,4,$2,$3,$4,$5,$6,$7,$8,$9,$2,$3,0*
0 Add four circle primitives for the rounded corners*
1,1,$1+$1,$2,$3*
1,1,$1+$1,$4,$5*
1,1,$1+$1,$6,$7*
1,1,$1+$1,$8,$9*
0 Add four rect primitives between the rounded corners*
20,1,$1+$1,$2,$3,$4,$5,0*
20,1,$1+$1,$4,$5,$6,$7,0*
20,1,$1+$1,$6,$7,$8,$9,0*
20,1,$1+$1,$8,$9,$2,$3,0*%
G04 Aperture macros list end*
%ADD10C,5.600000*%
%ADD11C,1.650000*%
%ADD12R,1.850000X3.500000*%
%ADD13R,1.357000X1.357000*%
%ADD14C,1.357000*%
%ADD15O,1.900000X2.500000*%
%ADD16R,1.900000X2.500000*%
%ADD17O,3.500000X3.500000*%
%ADD18R,1.800000X1.800000*%
%ADD19C,1.800000*%
%ADD20R,2.200000X2.200000*%
%ADD21O,2.200000X2.200000*%
%ADD22R,2.000000X4.100000*%
%ADD23R,1.700000X1.700000*%
%ADD24O,1.700000X1.700000*%
%ADD25C,2.000000*%
%ADD26C,1.600000*%
%ADD27RoundRect,0.102000X-0.654000X-0.654000X0.654000X-0.654000X0.654000X0.654000X-0.654000X0.654000X0*%
%ADD28C,1.512000*%
G04 APERTURE END LIST*
D10*
%TO.C,REF\u002A\u002A*%
X114270000Y-104150000D03*
%TD*%
%TO.C,REF\u002A\u002A*%
X180310000Y-104150000D03*
%TD*%
%TO.C,REF\u002A\u002A*%
X180310000Y-47000000D03*
%TD*%
%TO.C,REF\u002A\u002A*%
X114270000Y-47000000D03*
%TD*%
D11*
%TO.C,J6*%
X171420000Y-69940000D03*
X171420000Y-74940000D03*
%TD*%
%TO.C,J5*%
X171420000Y-87640000D03*
X171420000Y-82640000D03*
%TD*%
%TO.C,J4*%
X167690000Y-97800000D03*
X172690000Y-97800000D03*
%TD*%
%TO.C,J2*%
X154860000Y-97800000D03*
X159860000Y-97800000D03*
%TD*%
%TO.C,J1*%
X146730000Y-97850000D03*
X141730000Y-97850000D03*
%TD*%
D12*
%TO.C,C4*%
X148450000Y-81670000D03*
X148450000Y-87070000D03*
%TD*%
D13*
%TO.C,C1*%
X117020000Y-87290000D03*
D14*
X122100000Y-87290000D03*
%TD*%
D15*
%TO.C,U1*%
X131440000Y-86190000D03*
X128900000Y-86190000D03*
D16*
X126360000Y-86190000D03*
D17*
X128900000Y-69990000D03*
%TD*%
D18*
%TO.C,D3*%
X133320000Y-92720000D03*
D19*
X135860000Y-92720000D03*
%TD*%
D20*
%TO.C,D1*%
X156180000Y-78000000D03*
D21*
X156180000Y-88160000D03*
%TD*%
D22*
%TO.C,C2*%
X124150000Y-94395000D03*
X124150000Y-103095000D03*
%TD*%
D23*
%TO.C,J3*%
X168880000Y-45730000D03*
D24*
X168880000Y-48270000D03*
X168880000Y-50810000D03*
X168880000Y-53350000D03*
X168880000Y-55890000D03*
X168880000Y-58430000D03*
X168880000Y-60970000D03*
X168880000Y-63510000D03*
%TD*%
D25*
%TO.C,R1*%
X134590000Y-97800000D03*
X134590000Y-105420000D03*
%TD*%
D26*
%TO.C,C3*%
X138400000Y-86360000D03*
X140900000Y-86360000D03*
%TD*%
D27*
%TO.C,U2*%
X145470000Y-52520000D03*
D28*
X145470000Y-55060000D03*
X145470000Y-57600000D03*
X145470000Y-60140000D03*
X145470000Y-62680000D03*
X145470000Y-65220000D03*
X145470000Y-67760000D03*
X145470000Y-70300000D03*
X160710000Y-70300000D03*
X160710000Y-67760000D03*
X160710000Y-65220000D03*
X160710000Y-62680000D03*
X160710000Y-60140000D03*
X160710000Y-57600000D03*
X160710000Y-55060000D03*
X160710000Y-52520000D03*
%TD*%
D20*
%TO.C,D2*%
X161260000Y-78000000D03*
D21*
X161260000Y-88160000D03*
%TD*%
M02*
