M48
; DRILL file {KiCad 7.0.9} date Fri Aug 15 16:53:58 2025
; FORMAT={-:-/ absolute / inch / decimal}
; #@! TF.CreationDate,2025-08-15T16:53:58+02:00
; #@! TF.GenerationSoftware,Kicad,Pcbnew,7.0.9
; #@! TF.FileFunction,Plated,1,2,PTH
FMAT,2
INCH
; #@! TA.AperFunction,Plated,PTH,ViaDrill
T1C0.0157
; #@! TA.AperFunction,Plated,PTH,ComponentDrill
T2C0.0315
; #@! TA.AperFunction,Plated,PTH,ComponentDrill
T3C0.0329
; #@! TA.AperFunction,Plated,PTH,ComponentDrill
T4C0.0354
; #@! TA.AperFunction,Plated,PTH,ComponentDrill
T5C0.0394
; #@! TA.AperFunction,Plated,PTH,ComponentDrill
T6C0.0433
; #@! TA.AperFunction,Plated,PTH,ComponentDrill
T7C0.1260
%
G90
G05
T1
X4.951Y-4.0478
X5.7834Y-3.4259
T2
X5.2988Y-3.8504
X5.2988Y-4.1504
X5.4488Y-3.4
X5.5472Y-3.4
X5.7272Y-2.0677
X5.7272Y-2.1677
X5.7272Y-2.2677
X5.7272Y-2.3677
X5.7272Y-2.4677
X5.7272Y-2.5677
X5.7272Y-2.6677
X5.7272Y-2.7677
X6.3272Y-2.0677
X6.3272Y-2.1677
X6.3272Y-2.2677
X6.3272Y-2.3677
X6.3272Y-2.4677
X6.3272Y-2.5677
X6.3272Y-2.6677
X6.3272Y-2.7677
T3
X4.6071Y-3.4366
X4.8071Y-3.4366
T4
X5.2488Y-3.6504
X5.3488Y-3.6504
T5
X4.9748Y-3.3933
X5.0748Y-3.3933
X5.1748Y-3.3933
X6.6488Y-1.8004
X6.6488Y-1.9004
X6.6488Y-2.0004
X6.6488Y-2.1004
X6.6488Y-2.2004
X6.6488Y-2.3004
X6.6488Y-2.4004
X6.6488Y-2.5004
T6
X5.5799Y-3.8524
X5.7768Y-3.8524
X6.0969Y-3.8504
X6.1488Y-3.0709
X6.1488Y-3.4709
X6.2937Y-3.8504
X6.3488Y-3.0709
X6.3488Y-3.4709
X6.602Y-3.8504
X6.7488Y-2.7535
X6.7488Y-2.9504
X6.7488Y-3.2535
X6.7488Y-3.4504
X6.7988Y-3.8504
T7
X4.4988Y-1.8504
X4.4988Y-4.1004
X7.0988Y-1.8504
X7.0988Y-4.1004
T0
M30
