%TF.GenerationSoftware,KiCad,Pcbnew,7.0.9*%
%TF.CreationDate,2025-08-15T16:54:00+02:00*%
%TF.ProjectId,Kicad_Projet_Sons_HW896_V2,4b696361-645f-4507-926f-6a65745f536f,rev?*%
%TF.SameCoordinates,Original*%
%TF.FileFunction,Drillmap*%
%TF.FilePolarity,Positive*%
%FSLAX45Y45*%
G04 Gerber Fmt 4.5, Leading zero omitted, Abs format (unit mm)*
G04 Created by KiCad (PCBNEW 7.0.9) date 2025-08-15 16:54:00*
%MOMM*%
%LPD*%
G01*
G04 APERTURE LIST*
%ADD10C,0.100000*%
%ADD11C,0.200000*%
%ADD12C,0.350000*%
G04 APERTURE END LIST*
D10*
X11046000Y-10800000D02*
X11046000Y-4319000D01*
X18412000Y-4319000D02*
X18412000Y-10800000D01*
X11046000Y-4319000D02*
X18412000Y-4319000D01*
X18412000Y-10800000D02*
X11046000Y-10800000D01*
D11*
D12*
X12715000Y-6824000D02*
X13065000Y-7174000D01*
X13065000Y-6824000D02*
X12715000Y-7174000D01*
D11*
X11301777Y-11116484D02*
X11301777Y-10916484D01*
X11301777Y-10916484D02*
X11349396Y-10916484D01*
X11349396Y-10916484D02*
X11377967Y-10926008D01*
X11377967Y-10926008D02*
X11397015Y-10945055D01*
X11397015Y-10945055D02*
X11406539Y-10964103D01*
X11406539Y-10964103D02*
X11416062Y-11002198D01*
X11416062Y-11002198D02*
X11416062Y-11030770D01*
X11416062Y-11030770D02*
X11406539Y-11068865D01*
X11406539Y-11068865D02*
X11397015Y-11087912D01*
X11397015Y-11087912D02*
X11377967Y-11106960D01*
X11377967Y-11106960D02*
X11349396Y-11116484D01*
X11349396Y-11116484D02*
X11301777Y-11116484D01*
X11501777Y-11116484D02*
X11501777Y-10983150D01*
X11501777Y-11021246D02*
X11511301Y-11002198D01*
X11511301Y-11002198D02*
X11520824Y-10992674D01*
X11520824Y-10992674D02*
X11539872Y-10983150D01*
X11539872Y-10983150D02*
X11558920Y-10983150D01*
X11625586Y-11116484D02*
X11625586Y-10983150D01*
X11625586Y-10916484D02*
X11616062Y-10926008D01*
X11616062Y-10926008D02*
X11625586Y-10935531D01*
X11625586Y-10935531D02*
X11635110Y-10926008D01*
X11635110Y-10926008D02*
X11625586Y-10916484D01*
X11625586Y-10916484D02*
X11625586Y-10935531D01*
X11749396Y-11116484D02*
X11730348Y-11106960D01*
X11730348Y-11106960D02*
X11720824Y-11087912D01*
X11720824Y-11087912D02*
X11720824Y-10916484D01*
X11854158Y-11116484D02*
X11835110Y-11106960D01*
X11835110Y-11106960D02*
X11825586Y-11087912D01*
X11825586Y-11087912D02*
X11825586Y-10916484D01*
X12082729Y-11116484D02*
X12082729Y-10916484D01*
X12082729Y-10916484D02*
X12149396Y-11059341D01*
X12149396Y-11059341D02*
X12216062Y-10916484D01*
X12216062Y-10916484D02*
X12216062Y-11116484D01*
X12397015Y-11116484D02*
X12397015Y-11011722D01*
X12397015Y-11011722D02*
X12387491Y-10992674D01*
X12387491Y-10992674D02*
X12368443Y-10983150D01*
X12368443Y-10983150D02*
X12330348Y-10983150D01*
X12330348Y-10983150D02*
X12311301Y-10992674D01*
X12397015Y-11106960D02*
X12377967Y-11116484D01*
X12377967Y-11116484D02*
X12330348Y-11116484D01*
X12330348Y-11116484D02*
X12311301Y-11106960D01*
X12311301Y-11106960D02*
X12301777Y-11087912D01*
X12301777Y-11087912D02*
X12301777Y-11068865D01*
X12301777Y-11068865D02*
X12311301Y-11049817D01*
X12311301Y-11049817D02*
X12330348Y-11040293D01*
X12330348Y-11040293D02*
X12377967Y-11040293D01*
X12377967Y-11040293D02*
X12397015Y-11030770D01*
X12492253Y-10983150D02*
X12492253Y-11183150D01*
X12492253Y-10992674D02*
X12511301Y-10983150D01*
X12511301Y-10983150D02*
X12549396Y-10983150D01*
X12549396Y-10983150D02*
X12568443Y-10992674D01*
X12568443Y-10992674D02*
X12577967Y-11002198D01*
X12577967Y-11002198D02*
X12587491Y-11021246D01*
X12587491Y-11021246D02*
X12587491Y-11078389D01*
X12587491Y-11078389D02*
X12577967Y-11097436D01*
X12577967Y-11097436D02*
X12568443Y-11106960D01*
X12568443Y-11106960D02*
X12549396Y-11116484D01*
X12549396Y-11116484D02*
X12511301Y-11116484D01*
X12511301Y-11116484D02*
X12492253Y-11106960D01*
X12673205Y-11097436D02*
X12682729Y-11106960D01*
X12682729Y-11106960D02*
X12673205Y-11116484D01*
X12673205Y-11116484D02*
X12663682Y-11106960D01*
X12663682Y-11106960D02*
X12673205Y-11097436D01*
X12673205Y-11097436D02*
X12673205Y-11116484D01*
X12673205Y-10992674D02*
X12682729Y-11002198D01*
X12682729Y-11002198D02*
X12673205Y-11011722D01*
X12673205Y-11011722D02*
X12663682Y-11002198D01*
X12663682Y-11002198D02*
X12673205Y-10992674D01*
X12673205Y-10992674D02*
X12673205Y-11011722D01*
X10841000Y-11345000D02*
X11041000Y-11545000D01*
X11041000Y-11345000D02*
X10841000Y-11545000D01*
X11282729Y-11336484D02*
X11406539Y-11336484D01*
X11406539Y-11336484D02*
X11339872Y-11412674D01*
X11339872Y-11412674D02*
X11368443Y-11412674D01*
X11368443Y-11412674D02*
X11387491Y-11422198D01*
X11387491Y-11422198D02*
X11397015Y-11431722D01*
X11397015Y-11431722D02*
X11406539Y-11450769D01*
X11406539Y-11450769D02*
X11406539Y-11498388D01*
X11406539Y-11498388D02*
X11397015Y-11517436D01*
X11397015Y-11517436D02*
X11387491Y-11526960D01*
X11387491Y-11526960D02*
X11368443Y-11536484D01*
X11368443Y-11536484D02*
X11311301Y-11536484D01*
X11311301Y-11536484D02*
X11292253Y-11526960D01*
X11292253Y-11526960D02*
X11282729Y-11517436D01*
X11492253Y-11517436D02*
X11501777Y-11526960D01*
X11501777Y-11526960D02*
X11492253Y-11536484D01*
X11492253Y-11536484D02*
X11482729Y-11526960D01*
X11482729Y-11526960D02*
X11492253Y-11517436D01*
X11492253Y-11517436D02*
X11492253Y-11536484D01*
X11682729Y-11336484D02*
X11587491Y-11336484D01*
X11587491Y-11336484D02*
X11577967Y-11431722D01*
X11577967Y-11431722D02*
X11587491Y-11422198D01*
X11587491Y-11422198D02*
X11606539Y-11412674D01*
X11606539Y-11412674D02*
X11654158Y-11412674D01*
X11654158Y-11412674D02*
X11673205Y-11422198D01*
X11673205Y-11422198D02*
X11682729Y-11431722D01*
X11682729Y-11431722D02*
X11692253Y-11450769D01*
X11692253Y-11450769D02*
X11692253Y-11498388D01*
X11692253Y-11498388D02*
X11682729Y-11517436D01*
X11682729Y-11517436D02*
X11673205Y-11526960D01*
X11673205Y-11526960D02*
X11654158Y-11536484D01*
X11654158Y-11536484D02*
X11606539Y-11536484D01*
X11606539Y-11536484D02*
X11587491Y-11526960D01*
X11587491Y-11526960D02*
X11577967Y-11517436D01*
X11816062Y-11336484D02*
X11835110Y-11336484D01*
X11835110Y-11336484D02*
X11854158Y-11346008D01*
X11854158Y-11346008D02*
X11863682Y-11355531D01*
X11863682Y-11355531D02*
X11873205Y-11374579D01*
X11873205Y-11374579D02*
X11882729Y-11412674D01*
X11882729Y-11412674D02*
X11882729Y-11460293D01*
X11882729Y-11460293D02*
X11873205Y-11498388D01*
X11873205Y-11498388D02*
X11863682Y-11517436D01*
X11863682Y-11517436D02*
X11854158Y-11526960D01*
X11854158Y-11526960D02*
X11835110Y-11536484D01*
X11835110Y-11536484D02*
X11816062Y-11536484D01*
X11816062Y-11536484D02*
X11797015Y-11526960D01*
X11797015Y-11526960D02*
X11787491Y-11517436D01*
X11787491Y-11517436D02*
X11777967Y-11498388D01*
X11777967Y-11498388D02*
X11768443Y-11460293D01*
X11768443Y-11460293D02*
X11768443Y-11412674D01*
X11768443Y-11412674D02*
X11777967Y-11374579D01*
X11777967Y-11374579D02*
X11787491Y-11355531D01*
X11787491Y-11355531D02*
X11797015Y-11346008D01*
X11797015Y-11346008D02*
X11816062Y-11336484D01*
X12006539Y-11336484D02*
X12025586Y-11336484D01*
X12025586Y-11336484D02*
X12044634Y-11346008D01*
X12044634Y-11346008D02*
X12054158Y-11355531D01*
X12054158Y-11355531D02*
X12063682Y-11374579D01*
X12063682Y-11374579D02*
X12073205Y-11412674D01*
X12073205Y-11412674D02*
X12073205Y-11460293D01*
X12073205Y-11460293D02*
X12063682Y-11498388D01*
X12063682Y-11498388D02*
X12054158Y-11517436D01*
X12054158Y-11517436D02*
X12044634Y-11526960D01*
X12044634Y-11526960D02*
X12025586Y-11536484D01*
X12025586Y-11536484D02*
X12006539Y-11536484D01*
X12006539Y-11536484D02*
X11987491Y-11526960D01*
X11987491Y-11526960D02*
X11977967Y-11517436D01*
X11977967Y-11517436D02*
X11968443Y-11498388D01*
X11968443Y-11498388D02*
X11958920Y-11460293D01*
X11958920Y-11460293D02*
X11958920Y-11412674D01*
X11958920Y-11412674D02*
X11968443Y-11374579D01*
X11968443Y-11374579D02*
X11977967Y-11355531D01*
X11977967Y-11355531D02*
X11987491Y-11346008D01*
X11987491Y-11346008D02*
X12006539Y-11336484D01*
X12158920Y-11536484D02*
X12158920Y-11403150D01*
X12158920Y-11422198D02*
X12168443Y-11412674D01*
X12168443Y-11412674D02*
X12187491Y-11403150D01*
X12187491Y-11403150D02*
X12216063Y-11403150D01*
X12216063Y-11403150D02*
X12235110Y-11412674D01*
X12235110Y-11412674D02*
X12244634Y-11431722D01*
X12244634Y-11431722D02*
X12244634Y-11536484D01*
X12244634Y-11431722D02*
X12254158Y-11412674D01*
X12254158Y-11412674D02*
X12273205Y-11403150D01*
X12273205Y-11403150D02*
X12301777Y-11403150D01*
X12301777Y-11403150D02*
X12320824Y-11412674D01*
X12320824Y-11412674D02*
X12330348Y-11431722D01*
X12330348Y-11431722D02*
X12330348Y-11536484D01*
X12425586Y-11536484D02*
X12425586Y-11403150D01*
X12425586Y-11422198D02*
X12435110Y-11412674D01*
X12435110Y-11412674D02*
X12454158Y-11403150D01*
X12454158Y-11403150D02*
X12482729Y-11403150D01*
X12482729Y-11403150D02*
X12501777Y-11412674D01*
X12501777Y-11412674D02*
X12511301Y-11431722D01*
X12511301Y-11431722D02*
X12511301Y-11536484D01*
X12511301Y-11431722D02*
X12520824Y-11412674D01*
X12520824Y-11412674D02*
X12539872Y-11403150D01*
X12539872Y-11403150D02*
X12568443Y-11403150D01*
X12568443Y-11403150D02*
X12587491Y-11412674D01*
X12587491Y-11412674D02*
X12597015Y-11431722D01*
X12597015Y-11431722D02*
X12597015Y-11536484D01*
X12987491Y-11326960D02*
X12816063Y-11584103D01*
X13244634Y-11336484D02*
X13263682Y-11336484D01*
X13263682Y-11336484D02*
X13282729Y-11346008D01*
X13282729Y-11346008D02*
X13292253Y-11355531D01*
X13292253Y-11355531D02*
X13301777Y-11374579D01*
X13301777Y-11374579D02*
X13311301Y-11412674D01*
X13311301Y-11412674D02*
X13311301Y-11460293D01*
X13311301Y-11460293D02*
X13301777Y-11498388D01*
X13301777Y-11498388D02*
X13292253Y-11517436D01*
X13292253Y-11517436D02*
X13282729Y-11526960D01*
X13282729Y-11526960D02*
X13263682Y-11536484D01*
X13263682Y-11536484D02*
X13244634Y-11536484D01*
X13244634Y-11536484D02*
X13225586Y-11526960D01*
X13225586Y-11526960D02*
X13216063Y-11517436D01*
X13216063Y-11517436D02*
X13206539Y-11498388D01*
X13206539Y-11498388D02*
X13197015Y-11460293D01*
X13197015Y-11460293D02*
X13197015Y-11412674D01*
X13197015Y-11412674D02*
X13206539Y-11374579D01*
X13206539Y-11374579D02*
X13216063Y-11355531D01*
X13216063Y-11355531D02*
X13225586Y-11346008D01*
X13225586Y-11346008D02*
X13244634Y-11336484D01*
X13397015Y-11517436D02*
X13406539Y-11526960D01*
X13406539Y-11526960D02*
X13397015Y-11536484D01*
X13397015Y-11536484D02*
X13387491Y-11526960D01*
X13387491Y-11526960D02*
X13397015Y-11517436D01*
X13397015Y-11517436D02*
X13397015Y-11536484D01*
X13597015Y-11536484D02*
X13482729Y-11536484D01*
X13539872Y-11536484D02*
X13539872Y-11336484D01*
X13539872Y-11336484D02*
X13520825Y-11365055D01*
X13520825Y-11365055D02*
X13501777Y-11384103D01*
X13501777Y-11384103D02*
X13482729Y-11393627D01*
X13663682Y-11336484D02*
X13787491Y-11336484D01*
X13787491Y-11336484D02*
X13720825Y-11412674D01*
X13720825Y-11412674D02*
X13749396Y-11412674D01*
X13749396Y-11412674D02*
X13768444Y-11422198D01*
X13768444Y-11422198D02*
X13777967Y-11431722D01*
X13777967Y-11431722D02*
X13787491Y-11450769D01*
X13787491Y-11450769D02*
X13787491Y-11498388D01*
X13787491Y-11498388D02*
X13777967Y-11517436D01*
X13777967Y-11517436D02*
X13768444Y-11526960D01*
X13768444Y-11526960D02*
X13749396Y-11536484D01*
X13749396Y-11536484D02*
X13692253Y-11536484D01*
X13692253Y-11536484D02*
X13673206Y-11526960D01*
X13673206Y-11526960D02*
X13663682Y-11517436D01*
X13854158Y-11336484D02*
X13987491Y-11336484D01*
X13987491Y-11336484D02*
X13901777Y-11536484D01*
X14092253Y-11422198D02*
X14073206Y-11412674D01*
X14073206Y-11412674D02*
X14063682Y-11403150D01*
X14063682Y-11403150D02*
X14054158Y-11384103D01*
X14054158Y-11384103D02*
X14054158Y-11374579D01*
X14054158Y-11374579D02*
X14063682Y-11355531D01*
X14063682Y-11355531D02*
X14073206Y-11346008D01*
X14073206Y-11346008D02*
X14092253Y-11336484D01*
X14092253Y-11336484D02*
X14130348Y-11336484D01*
X14130348Y-11336484D02*
X14149396Y-11346008D01*
X14149396Y-11346008D02*
X14158920Y-11355531D01*
X14158920Y-11355531D02*
X14168444Y-11374579D01*
X14168444Y-11374579D02*
X14168444Y-11384103D01*
X14168444Y-11384103D02*
X14158920Y-11403150D01*
X14158920Y-11403150D02*
X14149396Y-11412674D01*
X14149396Y-11412674D02*
X14130348Y-11422198D01*
X14130348Y-11422198D02*
X14092253Y-11422198D01*
X14092253Y-11422198D02*
X14073206Y-11431722D01*
X14073206Y-11431722D02*
X14063682Y-11441246D01*
X14063682Y-11441246D02*
X14054158Y-11460293D01*
X14054158Y-11460293D02*
X14054158Y-11498388D01*
X14054158Y-11498388D02*
X14063682Y-11517436D01*
X14063682Y-11517436D02*
X14073206Y-11526960D01*
X14073206Y-11526960D02*
X14092253Y-11536484D01*
X14092253Y-11536484D02*
X14130348Y-11536484D01*
X14130348Y-11536484D02*
X14149396Y-11526960D01*
X14149396Y-11526960D02*
X14158920Y-11517436D01*
X14158920Y-11517436D02*
X14168444Y-11498388D01*
X14168444Y-11498388D02*
X14168444Y-11460293D01*
X14168444Y-11460293D02*
X14158920Y-11441246D01*
X14158920Y-11441246D02*
X14149396Y-11431722D01*
X14149396Y-11431722D02*
X14130348Y-11422198D01*
X14244634Y-11336484D02*
X14244634Y-11374579D01*
X14320825Y-11336484D02*
X14320825Y-11374579D01*
X14616063Y-11612674D02*
X14606539Y-11603150D01*
X14606539Y-11603150D02*
X14587491Y-11574579D01*
X14587491Y-11574579D02*
X14577968Y-11555531D01*
X14577968Y-11555531D02*
X14568444Y-11526960D01*
X14568444Y-11526960D02*
X14558920Y-11479341D01*
X14558920Y-11479341D02*
X14558920Y-11441246D01*
X14558920Y-11441246D02*
X14568444Y-11393627D01*
X14568444Y-11393627D02*
X14577968Y-11365055D01*
X14577968Y-11365055D02*
X14587491Y-11346008D01*
X14587491Y-11346008D02*
X14606539Y-11317436D01*
X14606539Y-11317436D02*
X14616063Y-11307912D01*
X14797015Y-11536484D02*
X14682729Y-11536484D01*
X14739872Y-11536484D02*
X14739872Y-11336484D01*
X14739872Y-11336484D02*
X14720825Y-11365055D01*
X14720825Y-11365055D02*
X14701777Y-11384103D01*
X14701777Y-11384103D02*
X14682729Y-11393627D01*
X15035110Y-11536484D02*
X15035110Y-11336484D01*
X15120825Y-11536484D02*
X15120825Y-11431722D01*
X15120825Y-11431722D02*
X15111301Y-11412674D01*
X15111301Y-11412674D02*
X15092253Y-11403150D01*
X15092253Y-11403150D02*
X15063682Y-11403150D01*
X15063682Y-11403150D02*
X15044634Y-11412674D01*
X15044634Y-11412674D02*
X15035110Y-11422198D01*
X15244634Y-11536484D02*
X15225587Y-11526960D01*
X15225587Y-11526960D02*
X15216063Y-11517436D01*
X15216063Y-11517436D02*
X15206539Y-11498388D01*
X15206539Y-11498388D02*
X15206539Y-11441246D01*
X15206539Y-11441246D02*
X15216063Y-11422198D01*
X15216063Y-11422198D02*
X15225587Y-11412674D01*
X15225587Y-11412674D02*
X15244634Y-11403150D01*
X15244634Y-11403150D02*
X15273206Y-11403150D01*
X15273206Y-11403150D02*
X15292253Y-11412674D01*
X15292253Y-11412674D02*
X15301777Y-11422198D01*
X15301777Y-11422198D02*
X15311301Y-11441246D01*
X15311301Y-11441246D02*
X15311301Y-11498388D01*
X15311301Y-11498388D02*
X15301777Y-11517436D01*
X15301777Y-11517436D02*
X15292253Y-11526960D01*
X15292253Y-11526960D02*
X15273206Y-11536484D01*
X15273206Y-11536484D02*
X15244634Y-11536484D01*
X15425587Y-11536484D02*
X15406539Y-11526960D01*
X15406539Y-11526960D02*
X15397015Y-11507912D01*
X15397015Y-11507912D02*
X15397015Y-11336484D01*
X15577968Y-11526960D02*
X15558920Y-11536484D01*
X15558920Y-11536484D02*
X15520825Y-11536484D01*
X15520825Y-11536484D02*
X15501777Y-11526960D01*
X15501777Y-11526960D02*
X15492253Y-11507912D01*
X15492253Y-11507912D02*
X15492253Y-11431722D01*
X15492253Y-11431722D02*
X15501777Y-11412674D01*
X15501777Y-11412674D02*
X15520825Y-11403150D01*
X15520825Y-11403150D02*
X15558920Y-11403150D01*
X15558920Y-11403150D02*
X15577968Y-11412674D01*
X15577968Y-11412674D02*
X15587491Y-11431722D01*
X15587491Y-11431722D02*
X15587491Y-11450769D01*
X15587491Y-11450769D02*
X15492253Y-11469817D01*
X15654158Y-11612674D02*
X15663682Y-11603150D01*
X15663682Y-11603150D02*
X15682730Y-11574579D01*
X15682730Y-11574579D02*
X15692253Y-11555531D01*
X15692253Y-11555531D02*
X15701777Y-11526960D01*
X15701777Y-11526960D02*
X15711301Y-11479341D01*
X15711301Y-11479341D02*
X15711301Y-11441246D01*
X15711301Y-11441246D02*
X15701777Y-11393627D01*
X15701777Y-11393627D02*
X15692253Y-11365055D01*
X15692253Y-11365055D02*
X15682730Y-11346008D01*
X15682730Y-11346008D02*
X15663682Y-11317436D01*
X15663682Y-11317436D02*
X15654158Y-11307912D01*
X16016063Y-11612674D02*
X16006539Y-11603150D01*
X16006539Y-11603150D02*
X15987491Y-11574579D01*
X15987491Y-11574579D02*
X15977968Y-11555531D01*
X15977968Y-11555531D02*
X15968444Y-11526960D01*
X15968444Y-11526960D02*
X15958920Y-11479341D01*
X15958920Y-11479341D02*
X15958920Y-11441246D01*
X15958920Y-11441246D02*
X15968444Y-11393627D01*
X15968444Y-11393627D02*
X15977968Y-11365055D01*
X15977968Y-11365055D02*
X15987491Y-11346008D01*
X15987491Y-11346008D02*
X16006539Y-11317436D01*
X16006539Y-11317436D02*
X16016063Y-11307912D01*
X16092253Y-11403150D02*
X16092253Y-11536484D01*
X16092253Y-11422198D02*
X16101777Y-11412674D01*
X16101777Y-11412674D02*
X16120825Y-11403150D01*
X16120825Y-11403150D02*
X16149396Y-11403150D01*
X16149396Y-11403150D02*
X16168444Y-11412674D01*
X16168444Y-11412674D02*
X16177968Y-11431722D01*
X16177968Y-11431722D02*
X16177968Y-11536484D01*
X16301777Y-11536484D02*
X16282730Y-11526960D01*
X16282730Y-11526960D02*
X16273206Y-11517436D01*
X16273206Y-11517436D02*
X16263682Y-11498388D01*
X16263682Y-11498388D02*
X16263682Y-11441246D01*
X16263682Y-11441246D02*
X16273206Y-11422198D01*
X16273206Y-11422198D02*
X16282730Y-11412674D01*
X16282730Y-11412674D02*
X16301777Y-11403150D01*
X16301777Y-11403150D02*
X16330349Y-11403150D01*
X16330349Y-11403150D02*
X16349396Y-11412674D01*
X16349396Y-11412674D02*
X16358920Y-11422198D01*
X16358920Y-11422198D02*
X16368444Y-11441246D01*
X16368444Y-11441246D02*
X16368444Y-11498388D01*
X16368444Y-11498388D02*
X16358920Y-11517436D01*
X16358920Y-11517436D02*
X16349396Y-11526960D01*
X16349396Y-11526960D02*
X16330349Y-11536484D01*
X16330349Y-11536484D02*
X16301777Y-11536484D01*
X16425587Y-11403150D02*
X16501777Y-11403150D01*
X16454158Y-11336484D02*
X16454158Y-11507912D01*
X16454158Y-11507912D02*
X16463682Y-11526960D01*
X16463682Y-11526960D02*
X16482730Y-11536484D01*
X16482730Y-11536484D02*
X16501777Y-11536484D01*
X16720825Y-11403150D02*
X16720825Y-11603150D01*
X16720825Y-11412674D02*
X16739872Y-11403150D01*
X16739872Y-11403150D02*
X16777968Y-11403150D01*
X16777968Y-11403150D02*
X16797015Y-11412674D01*
X16797015Y-11412674D02*
X16806539Y-11422198D01*
X16806539Y-11422198D02*
X16816063Y-11441246D01*
X16816063Y-11441246D02*
X16816063Y-11498388D01*
X16816063Y-11498388D02*
X16806539Y-11517436D01*
X16806539Y-11517436D02*
X16797015Y-11526960D01*
X16797015Y-11526960D02*
X16777968Y-11536484D01*
X16777968Y-11536484D02*
X16739872Y-11536484D01*
X16739872Y-11536484D02*
X16720825Y-11526960D01*
X16930349Y-11536484D02*
X16911301Y-11526960D01*
X16911301Y-11526960D02*
X16901777Y-11507912D01*
X16901777Y-11507912D02*
X16901777Y-11336484D01*
X17092254Y-11536484D02*
X17092254Y-11431722D01*
X17092254Y-11431722D02*
X17082730Y-11412674D01*
X17082730Y-11412674D02*
X17063682Y-11403150D01*
X17063682Y-11403150D02*
X17025587Y-11403150D01*
X17025587Y-11403150D02*
X17006539Y-11412674D01*
X17092254Y-11526960D02*
X17073206Y-11536484D01*
X17073206Y-11536484D02*
X17025587Y-11536484D01*
X17025587Y-11536484D02*
X17006539Y-11526960D01*
X17006539Y-11526960D02*
X16997015Y-11507912D01*
X16997015Y-11507912D02*
X16997015Y-11488865D01*
X16997015Y-11488865D02*
X17006539Y-11469817D01*
X17006539Y-11469817D02*
X17025587Y-11460293D01*
X17025587Y-11460293D02*
X17073206Y-11460293D01*
X17073206Y-11460293D02*
X17092254Y-11450769D01*
X17158920Y-11403150D02*
X17235111Y-11403150D01*
X17187492Y-11336484D02*
X17187492Y-11507912D01*
X17187492Y-11507912D02*
X17197015Y-11526960D01*
X17197015Y-11526960D02*
X17216063Y-11536484D01*
X17216063Y-11536484D02*
X17235111Y-11536484D01*
X17377968Y-11526960D02*
X17358920Y-11536484D01*
X17358920Y-11536484D02*
X17320825Y-11536484D01*
X17320825Y-11536484D02*
X17301777Y-11526960D01*
X17301777Y-11526960D02*
X17292254Y-11507912D01*
X17292254Y-11507912D02*
X17292254Y-11431722D01*
X17292254Y-11431722D02*
X17301777Y-11412674D01*
X17301777Y-11412674D02*
X17320825Y-11403150D01*
X17320825Y-11403150D02*
X17358920Y-11403150D01*
X17358920Y-11403150D02*
X17377968Y-11412674D01*
X17377968Y-11412674D02*
X17387492Y-11431722D01*
X17387492Y-11431722D02*
X17387492Y-11450769D01*
X17387492Y-11450769D02*
X17292254Y-11469817D01*
X17558920Y-11536484D02*
X17558920Y-11336484D01*
X17558920Y-11526960D02*
X17539873Y-11536484D01*
X17539873Y-11536484D02*
X17501777Y-11536484D01*
X17501777Y-11536484D02*
X17482730Y-11526960D01*
X17482730Y-11526960D02*
X17473206Y-11517436D01*
X17473206Y-11517436D02*
X17463682Y-11498388D01*
X17463682Y-11498388D02*
X17463682Y-11441246D01*
X17463682Y-11441246D02*
X17473206Y-11422198D01*
X17473206Y-11422198D02*
X17482730Y-11412674D01*
X17482730Y-11412674D02*
X17501777Y-11403150D01*
X17501777Y-11403150D02*
X17539873Y-11403150D01*
X17539873Y-11403150D02*
X17558920Y-11412674D01*
X17635111Y-11612674D02*
X17644635Y-11603150D01*
X17644635Y-11603150D02*
X17663682Y-11574579D01*
X17663682Y-11574579D02*
X17673206Y-11555531D01*
X17673206Y-11555531D02*
X17682730Y-11526960D01*
X17682730Y-11526960D02*
X17692254Y-11479341D01*
X17692254Y-11479341D02*
X17692254Y-11441246D01*
X17692254Y-11441246D02*
X17682730Y-11393627D01*
X17682730Y-11393627D02*
X17673206Y-11365055D01*
X17673206Y-11365055D02*
X17663682Y-11346008D01*
X17663682Y-11346008D02*
X17644635Y-11317436D01*
X17644635Y-11317436D02*
X17635111Y-11307912D01*
M02*
