%TF.GenerationSoftware,KiCad,Pcbnew,7.0.9*%
%TF.CreationDate,2025-08-15T16:53:55+02:00*%
%TF.ProjectId,Kicad_Projet_Sons_HW896_V2,4b696361-645f-4507-926f-6a65745f536f,rev?*%
%TF.SameCoordinates,Original*%
%TF.FileFunction,Copper,L2,Bot*%
%TF.FilePolarity,Positive*%
%FSLAX46Y46*%
G04 Gerber Fmt 4.6, Leading zero omitted, Abs format (unit mm)*
G04 Created by KiCad (PCBNEW 7.0.9) date 2025-08-15 16:53:55*
%MOMM*%
%LPD*%
G01*
G04 APERTURE LIST*
%TA.AperFunction,ComponentPad*%
%ADD10C,5.600000*%
%TD*%
%TA.AperFunction,ComponentPad*%
%ADD11C,1.650000*%
%TD*%
%TA.AperFunction,ComponentPad*%
%ADD12R,1.357000X1.357000*%
%TD*%
%TA.AperFunction,ComponentPad*%
%ADD13C,1.357000*%
%TD*%
%TA.AperFunction,ComponentPad*%
%ADD14O,1.900000X2.500000*%
%TD*%
%TA.AperFunction,ComponentPad*%
%ADD15R,1.900000X2.500000*%
%TD*%
%TA.AperFunction,ComponentPad*%
%ADD16R,1.800000X1.800000*%
%TD*%
%TA.AperFunction,ComponentPad*%
%ADD17C,1.800000*%
%TD*%
%TA.AperFunction,ComponentPad*%
%ADD18R,2.200000X2.200000*%
%TD*%
%TA.AperFunction,ComponentPad*%
%ADD19O,2.200000X2.200000*%
%TD*%
%TA.AperFunction,ComponentPad*%
%ADD20R,1.700000X1.700000*%
%TD*%
%TA.AperFunction,ComponentPad*%
%ADD21O,1.700000X1.700000*%
%TD*%
%TA.AperFunction,ComponentPad*%
%ADD22C,2.000000*%
%TD*%
%TA.AperFunction,ComponentPad*%
%ADD23C,1.600000*%
%TD*%
%TA.AperFunction,ComponentPad*%
%ADD24R,1.308000X1.308000*%
%TD*%
%TA.AperFunction,ComponentPad*%
%ADD25C,1.308000*%
%TD*%
%TA.AperFunction,ViaPad*%
%ADD26C,0.800000*%
%TD*%
%TA.AperFunction,Conductor*%
%ADD27C,0.250000*%
%TD*%
G04 APERTURE END LIST*
D10*
%TO.P,REF\u002A\u002A,1*%
%TO.N,N/C*%
X114270000Y-104150000D03*
%TD*%
%TO.P,REF\u002A\u002A,1*%
%TO.N,N/C*%
X180310000Y-104150000D03*
%TD*%
%TO.P,REF\u002A\u002A,1*%
%TO.N,N/C*%
X180310000Y-47000000D03*
%TD*%
%TO.P,REF\u002A\u002A,1*%
%TO.N,N/C*%
X114270000Y-47000000D03*
%TD*%
D11*
%TO.P,J6,1,1*%
%TO.N,SPK+*%
X171420000Y-69940000D03*
%TO.P,J6,2,2*%
%TO.N,SPK-*%
X171420000Y-74940000D03*
%TD*%
%TO.P,J5,1,1*%
%TO.N,Net-(U2-K5)*%
X171420000Y-87640000D03*
%TO.P,J5,2,2*%
%TO.N,GND*%
X171420000Y-82640000D03*
%TD*%
%TO.P,J4,1,1*%
%TO.N,Net-(U2-K3)*%
X167690000Y-97800000D03*
%TO.P,J4,2,2*%
%TO.N,Net-(U2-K4)*%
X172690000Y-97800000D03*
%TD*%
%TO.P,J2,1,1*%
%TO.N,Net-(U2-K1)*%
X154860000Y-97800000D03*
%TO.P,J2,2,2*%
%TO.N,Net-(U2-K2)*%
X159860000Y-97800000D03*
%TD*%
%TO.P,J1,1,1*%
%TO.N,Net-(D1-A)*%
X146730000Y-97850000D03*
%TO.P,J1,2,2*%
%TO.N,GND*%
X141730000Y-97850000D03*
%TD*%
D12*
%TO.P,C1,1,1*%
%TO.N,Net-(C2-+)*%
X117020000Y-87290000D03*
D13*
%TO.P,C1,2,2*%
%TO.N,GND*%
X122100000Y-87290000D03*
%TD*%
D14*
%TO.P,U1,3,VO*%
%TO.N,Net-(D2-A)*%
X131440000Y-86190000D03*
%TO.P,U1,2,GND*%
%TO.N,GND*%
X128900000Y-86190000D03*
D15*
%TO.P,U1,1,VI*%
%TO.N,Net-(C2-+)*%
X126360000Y-86190000D03*
%TD*%
D16*
%TO.P,D3,1,K*%
%TO.N,GND*%
X133320000Y-92720000D03*
D17*
%TO.P,D3,2,A*%
%TO.N,Net-(D3-A)*%
X135860000Y-92720000D03*
%TD*%
D18*
%TO.P,D1,1,K*%
%TO.N,Net-(C2-+)*%
X156180000Y-78000000D03*
D19*
%TO.P,D1,2,A*%
%TO.N,Net-(D1-A)*%
X156180000Y-88160000D03*
%TD*%
D20*
%TO.P,J3,1,Pin_1*%
%TO.N,Dac_L*%
X168880000Y-45730000D03*
D21*
%TO.P,J3,2,Pin_2*%
%TO.N,Dac_R*%
X168880000Y-48270000D03*
%TO.P,J3,3,Pin_3*%
%TO.N,ADKEY*%
X168880000Y-50810000D03*
%TO.P,J3,4,Pin_4*%
%TO.N,Busy*%
X168880000Y-53350000D03*
%TO.P,J3,5,Pin_5*%
%TO.N,TX*%
X168880000Y-55890000D03*
%TO.P,J3,6,Pin_6*%
%TO.N,RX*%
X168880000Y-58430000D03*
%TO.P,J3,7,Pin_7*%
%TO.N,GND*%
X168880000Y-60970000D03*
%TO.P,J3,8,Pin_8*%
X168880000Y-63510000D03*
%TD*%
D22*
%TO.P,R1,1*%
%TO.N,Net-(D2-A)*%
X134590000Y-97800000D03*
%TO.P,R1,2*%
%TO.N,Net-(D3-A)*%
X134590000Y-105420000D03*
%TD*%
D23*
%TO.P,C3,1*%
%TO.N,Net-(D2-A)*%
X138400000Y-86360000D03*
%TO.P,C3,2*%
%TO.N,GND*%
X140900000Y-86360000D03*
%TD*%
D24*
%TO.P,U2,1,K1*%
%TO.N,Net-(U2-K1)*%
X145470000Y-52520000D03*
D25*
%TO.P,U2,2,K2*%
%TO.N,Net-(U2-K2)*%
X145470000Y-55060000D03*
%TO.P,U2,3,K3*%
%TO.N,Net-(U2-K3)*%
X145470000Y-57600000D03*
%TO.P,U2,4,K4*%
%TO.N,Net-(U2-K4)*%
X145470000Y-60140000D03*
%TO.P,U2,5,K5*%
%TO.N,Net-(U2-K5)*%
X145470000Y-62680000D03*
%TO.P,U2,6,SGND*%
%TO.N,GND*%
X145470000Y-65220000D03*
%TO.P,U2,7,ADKEY*%
%TO.N,ADKEY*%
X145470000Y-67760000D03*
%TO.P,U2,8,Busy*%
%TO.N,Busy*%
X145470000Y-70300000D03*
%TO.P,U2,9,RX*%
%TO.N,RX*%
X160710000Y-70300000D03*
%TO.P,U2,10,TX*%
%TO.N,TX*%
X160710000Y-67760000D03*
%TO.P,U2,11,GND*%
%TO.N,GND*%
X160710000Y-65220000D03*
%TO.P,U2,12,VCC*%
%TO.N,+4V*%
X160710000Y-62680000D03*
%TO.P,U2,13,Dac_R*%
%TO.N,Dac_R*%
X160710000Y-60140000D03*
%TO.P,U2,14,Dac_L*%
%TO.N,Dac_L*%
X160710000Y-57600000D03*
%TO.P,U2,15,SPK-*%
%TO.N,SPK-*%
X160710000Y-55060000D03*
%TO.P,U2,16,SPK+*%
%TO.N,SPK+*%
X160710000Y-52520000D03*
%TD*%
D18*
%TO.P,D2,1,K*%
%TO.N,+4V*%
X161260000Y-78000000D03*
D19*
%TO.P,D2,2,A*%
%TO.N,Net-(D2-A)*%
X161260000Y-88160000D03*
%TD*%
D26*
%TO.N,GND*%
X125755200Y-102815100D03*
X146899400Y-87019100D03*
%TD*%
D27*
%TO.N,SPK-*%
X162685400Y-66205400D02*
X171420000Y-74940000D01*
X162685400Y-57035400D02*
X162685400Y-66205400D01*
X160710000Y-55060000D02*
X162685400Y-57035400D01*
%TO.N,SPK+*%
X166165400Y-64685400D02*
X171420000Y-69940000D01*
X166165400Y-57975400D02*
X166165400Y-64685400D01*
X160710000Y-52520000D02*
X166165400Y-57975400D01*
%TO.N,Net-(U2-K5)*%
X168239100Y-87640000D02*
X171420000Y-87640000D01*
X158720000Y-78120900D02*
X168239100Y-87640000D01*
X158720000Y-75930000D02*
X158720000Y-78120900D01*
X145470000Y-62680000D02*
X158720000Y-75930000D01*
%TO.N,Net-(U2-K4)*%
X172690000Y-96060400D02*
X172690000Y-97800000D01*
X157778200Y-81148600D02*
X172690000Y-96060400D01*
X157778200Y-76124900D02*
X157778200Y-81148600D01*
X145762400Y-64109100D02*
X157778200Y-76124900D01*
X145468400Y-64109100D02*
X145762400Y-64109100D01*
X144487100Y-63127800D02*
X145468400Y-64109100D01*
X144487100Y-61122900D02*
X144487100Y-63127800D01*
X145470000Y-60140000D02*
X144487100Y-61122900D01*
%TO.N,Net-(U2-K3)*%
X167690000Y-96707400D02*
X167690000Y-97800000D01*
X152599800Y-81617200D02*
X167690000Y-96707400D01*
X152599800Y-73478600D02*
X152599800Y-81617200D01*
X145611200Y-66490000D02*
X152599800Y-73478600D01*
X145331800Y-66490000D02*
X145611200Y-66490000D01*
X143980500Y-65138700D02*
X145331800Y-66490000D01*
X143980500Y-59089500D02*
X143980500Y-65138700D01*
X145470000Y-57600000D02*
X143980500Y-59089500D01*
%TO.N,Net-(U2-K2)*%
X143530100Y-81470100D02*
X159860000Y-97800000D01*
X143530100Y-56999900D02*
X143530100Y-81470100D01*
X145470000Y-55060000D02*
X143530100Y-56999900D01*
%TO.N,Net-(U2-K1)*%
X143066300Y-86006300D02*
X154860000Y-97800000D01*
X143066300Y-55903000D02*
X143066300Y-86006300D01*
X145470000Y-53499300D02*
X143066300Y-55903000D01*
X145470000Y-52520000D02*
X145470000Y-53499300D01*
%TO.N,Net-(D3-A)*%
X135931700Y-92791700D02*
X135860000Y-92720000D01*
X135931700Y-104078300D02*
X135931700Y-92791700D01*
X134590000Y-105420000D02*
X135931700Y-104078300D01*
%TO.N,+4V*%
X161735000Y-76099700D02*
X161260000Y-76574700D01*
X161735000Y-63705000D02*
X161735000Y-76099700D01*
X160710000Y-62680000D02*
X161735000Y-63705000D01*
X161260000Y-78000000D02*
X161260000Y-76574700D01*
%TD*%
%TA.AperFunction,Conductor*%
%TO.N,GND*%
G36*
X169130000Y-63074498D02*
G01*
X169022315Y-63025320D01*
X168915763Y-63010000D01*
X168844237Y-63010000D01*
X168737685Y-63025320D01*
X168630000Y-63074498D01*
X168630000Y-61405501D01*
X168737685Y-61454680D01*
X168844237Y-61470000D01*
X168915763Y-61470000D01*
X169022315Y-61454680D01*
X169130000Y-61405501D01*
X169130000Y-63074498D01*
G37*
%TD.AperFunction*%
%TA.AperFunction,Conductor*%
G36*
X176443039Y-43210185D02*
G01*
X176488794Y-43262989D01*
X176500000Y-43314500D01*
X176500000Y-50810000D01*
X183995500Y-50810000D01*
X184062539Y-50829685D01*
X184108294Y-50882489D01*
X184119500Y-50934000D01*
X184119500Y-100216000D01*
X184099815Y-100283039D01*
X184047011Y-100328794D01*
X183995500Y-100340000D01*
X176500000Y-100340000D01*
X176500000Y-107836000D01*
X176480315Y-107903039D01*
X176427511Y-107948794D01*
X176376000Y-107960000D01*
X118204000Y-107960000D01*
X118136961Y-107940315D01*
X118091206Y-107887511D01*
X118080000Y-107836000D01*
X118080000Y-100340000D01*
X110584500Y-100340000D01*
X110517461Y-100320315D01*
X110471706Y-100267511D01*
X110460500Y-100216000D01*
X110460500Y-93667844D01*
X131920000Y-93667844D01*
X131926401Y-93727372D01*
X131926403Y-93727379D01*
X131976645Y-93862086D01*
X131976649Y-93862093D01*
X132062809Y-93977187D01*
X132062812Y-93977190D01*
X132177906Y-94063350D01*
X132177913Y-94063354D01*
X132312620Y-94113596D01*
X132312627Y-94113598D01*
X132372155Y-94119999D01*
X132372172Y-94120000D01*
X133070000Y-94120000D01*
X133070000Y-93094189D01*
X133122547Y-93130016D01*
X133252173Y-93170000D01*
X133353724Y-93170000D01*
X133454138Y-93154865D01*
X133570000Y-93099068D01*
X133570000Y-94120000D01*
X134267828Y-94120000D01*
X134267844Y-94119999D01*
X134327372Y-94113598D01*
X134327379Y-94113596D01*
X134462086Y-94063354D01*
X134462093Y-94063350D01*
X134577187Y-93977190D01*
X134577190Y-93977187D01*
X134663350Y-93862093D01*
X134663355Y-93862084D01*
X134692075Y-93785081D01*
X134733945Y-93729147D01*
X134799409Y-93704729D01*
X134867682Y-93719580D01*
X134899484Y-93744428D01*
X134908216Y-93753913D01*
X134908219Y-93753915D01*
X134908222Y-93753918D01*
X135091365Y-93896464D01*
X135091375Y-93896471D01*
X135135725Y-93920472D01*
X135241219Y-93977562D01*
X135290808Y-94026779D01*
X135306200Y-94086615D01*
X135306200Y-96285739D01*
X135286515Y-96352778D01*
X135233711Y-96398533D01*
X135164553Y-96408477D01*
X135141937Y-96403020D01*
X134959616Y-96340429D01*
X134714335Y-96299500D01*
X134465665Y-96299500D01*
X134220383Y-96340429D01*
X133985197Y-96421169D01*
X133985188Y-96421172D01*
X133766493Y-96539524D01*
X133570257Y-96692261D01*
X133401833Y-96875217D01*
X133265826Y-97083393D01*
X133165936Y-97311118D01*
X133104892Y-97552175D01*
X133104890Y-97552187D01*
X133084357Y-97799994D01*
X133084357Y-97800005D01*
X133104890Y-98047812D01*
X133104892Y-98047824D01*
X133165936Y-98288881D01*
X133265826Y-98516606D01*
X133401833Y-98724782D01*
X133401836Y-98724785D01*
X133570256Y-98907738D01*
X133766491Y-99060474D01*
X133985190Y-99178828D01*
X134220386Y-99259571D01*
X134465665Y-99300500D01*
X134714335Y-99300500D01*
X134959614Y-99259571D01*
X135141938Y-99196978D01*
X135211735Y-99193829D01*
X135272157Y-99228915D01*
X135304017Y-99291097D01*
X135306200Y-99314260D01*
X135306200Y-103767846D01*
X135286515Y-103834885D01*
X135269881Y-103855528D01*
X135167228Y-103958180D01*
X135105905Y-103991664D01*
X135039284Y-103987779D01*
X134959616Y-103960429D01*
X134714335Y-103919500D01*
X134465665Y-103919500D01*
X134220383Y-103960429D01*
X133985197Y-104041169D01*
X133985188Y-104041172D01*
X133766493Y-104159524D01*
X133570257Y-104312261D01*
X133401833Y-104495217D01*
X133265826Y-104703393D01*
X133165936Y-104931118D01*
X133104892Y-105172175D01*
X133104890Y-105172187D01*
X133084357Y-105419994D01*
X133084357Y-105420005D01*
X133104890Y-105667812D01*
X133104892Y-105667824D01*
X133165936Y-105908881D01*
X133265826Y-106136606D01*
X133401833Y-106344782D01*
X133401836Y-106344785D01*
X133570256Y-106527738D01*
X133766491Y-106680474D01*
X133985190Y-106798828D01*
X134220386Y-106879571D01*
X134465665Y-106920500D01*
X134714335Y-106920500D01*
X134959614Y-106879571D01*
X135194810Y-106798828D01*
X135413509Y-106680474D01*
X135609744Y-106527738D01*
X135778164Y-106344785D01*
X135914173Y-106136607D01*
X136014063Y-105908881D01*
X136075108Y-105667821D01*
X136075109Y-105667812D01*
X136095643Y-105420005D01*
X136095643Y-105419994D01*
X136075109Y-105172187D01*
X136075107Y-105172175D01*
X136021136Y-104959049D01*
X136023761Y-104889229D01*
X136053661Y-104840928D01*
X136315487Y-104579102D01*
X136327742Y-104569286D01*
X136327559Y-104569064D01*
X136333566Y-104564092D01*
X136333577Y-104564086D01*
X136364475Y-104531182D01*
X136380927Y-104513664D01*
X136391371Y-104503218D01*
X136401820Y-104492771D01*
X136406079Y-104487278D01*
X136409852Y-104482861D01*
X136441762Y-104448882D01*
X136451413Y-104431324D01*
X136462096Y-104415061D01*
X136474373Y-104399236D01*
X136492885Y-104356453D01*
X136495438Y-104351241D01*
X136517897Y-104310392D01*
X136522880Y-104290980D01*
X136529181Y-104272580D01*
X136537137Y-104254196D01*
X136544429Y-104208152D01*
X136545606Y-104202471D01*
X136557200Y-104157319D01*
X136557200Y-104137283D01*
X136558727Y-104117882D01*
X136561860Y-104098104D01*
X136557475Y-104051715D01*
X136557200Y-104045877D01*
X136557200Y-97850000D01*
X140399939Y-97850000D01*
X140420145Y-98080958D01*
X140420147Y-98080968D01*
X140480148Y-98304900D01*
X140480152Y-98304909D01*
X140578132Y-98515029D01*
X140578133Y-98515031D01*
X140633023Y-98593422D01*
X140633024Y-98593423D01*
X141204070Y-98022376D01*
X141206884Y-98035915D01*
X141276442Y-98170156D01*
X141379638Y-98280652D01*
X141508819Y-98359209D01*
X141560002Y-98373549D01*
X140986575Y-98946975D01*
X141064973Y-99001868D01*
X141275090Y-99099847D01*
X141275099Y-99099851D01*
X141499031Y-99159852D01*
X141499041Y-99159854D01*
X141729999Y-99180061D01*
X141730001Y-99180061D01*
X141960958Y-99159854D01*
X141960968Y-99159852D01*
X142184900Y-99099851D01*
X142184909Y-99099847D01*
X142395030Y-99001867D01*
X142473423Y-98946975D01*
X141901568Y-98375121D01*
X142018458Y-98324349D01*
X142135739Y-98228934D01*
X142222928Y-98105415D01*
X142253354Y-98019802D01*
X142826975Y-98593423D01*
X142881867Y-98515030D01*
X142979847Y-98304909D01*
X142979851Y-98304900D01*
X143039852Y-98080968D01*
X143039854Y-98080958D01*
X143060061Y-97850001D01*
X145399437Y-97850001D01*
X145419650Y-98081044D01*
X145419651Y-98081051D01*
X145479678Y-98305074D01*
X145479679Y-98305076D01*
X145479680Y-98305079D01*
X145577699Y-98515282D01*
X145710730Y-98705269D01*
X145874731Y-98869270D01*
X146064718Y-99002301D01*
X146274921Y-99100320D01*
X146498950Y-99160349D01*
X146663985Y-99174787D01*
X146729998Y-99180563D01*
X146730000Y-99180563D01*
X146730002Y-99180563D01*
X146787762Y-99175509D01*
X146961050Y-99160349D01*
X147185079Y-99100320D01*
X147395282Y-99002301D01*
X147585269Y-98869270D01*
X147749270Y-98705269D01*
X147882301Y-98515282D01*
X147980320Y-98305079D01*
X148040349Y-98081050D01*
X148060563Y-97850000D01*
X148057248Y-97812114D01*
X148050681Y-97737047D01*
X148040349Y-97618950D01*
X147980320Y-97394921D01*
X147882301Y-97184719D01*
X147882299Y-97184716D01*
X147882298Y-97184714D01*
X147749273Y-96994735D01*
X147749268Y-96994729D01*
X147585269Y-96830730D01*
X147513862Y-96780730D01*
X147395282Y-96697699D01*
X147185079Y-96599680D01*
X147185076Y-96599679D01*
X147185074Y-96599678D01*
X146961051Y-96539651D01*
X146961044Y-96539650D01*
X146730002Y-96519437D01*
X146729998Y-96519437D01*
X146498955Y-96539650D01*
X146498948Y-96539651D01*
X146274917Y-96599681D01*
X146064718Y-96697699D01*
X146064714Y-96697701D01*
X145874735Y-96830726D01*
X145874729Y-96830731D01*
X145710731Y-96994729D01*
X145710726Y-96994735D01*
X145577701Y-97184714D01*
X145577699Y-97184718D01*
X145479681Y-97394917D01*
X145419651Y-97618948D01*
X145419650Y-97618955D01*
X145399437Y-97849998D01*
X145399437Y-97850001D01*
X143060061Y-97850001D01*
X143060061Y-97850000D01*
X143060061Y-97849999D01*
X143039854Y-97619041D01*
X143039852Y-97619031D01*
X142979851Y-97395099D01*
X142979847Y-97395090D01*
X142881868Y-97184972D01*
X142826974Y-97106576D01*
X142255929Y-97677622D01*
X142253116Y-97664085D01*
X142183558Y-97529844D01*
X142080362Y-97419348D01*
X141951181Y-97340791D01*
X141899997Y-97326450D01*
X142473423Y-96753024D01*
X142473422Y-96753023D01*
X142395031Y-96698133D01*
X142395029Y-96698132D01*
X142184909Y-96600152D01*
X142184900Y-96600148D01*
X141960968Y-96540147D01*
X141960958Y-96540145D01*
X141730001Y-96519939D01*
X141729999Y-96519939D01*
X141499041Y-96540145D01*
X141499031Y-96540147D01*
X141275099Y-96600148D01*
X141275090Y-96600152D01*
X141064971Y-96698132D01*
X141064969Y-96698133D01*
X140986577Y-96753024D01*
X140986576Y-96753024D01*
X141558431Y-97324878D01*
X141441542Y-97375651D01*
X141324261Y-97471066D01*
X141237072Y-97594585D01*
X141206645Y-97680197D01*
X140633024Y-97106576D01*
X140633024Y-97106577D01*
X140578133Y-97184969D01*
X140578132Y-97184971D01*
X140480152Y-97395090D01*
X140480148Y-97395099D01*
X140420147Y-97619031D01*
X140420145Y-97619041D01*
X140399939Y-97849999D01*
X140399939Y-97850000D01*
X136557200Y-97850000D01*
X136557200Y-94009011D01*
X136576885Y-93941972D01*
X136622183Y-93899956D01*
X136628626Y-93896470D01*
X136628631Y-93896466D01*
X136628633Y-93896465D01*
X136628635Y-93896463D01*
X136771739Y-93785081D01*
X136811784Y-93753913D01*
X136968979Y-93583153D01*
X137095924Y-93388849D01*
X137189157Y-93176300D01*
X137246134Y-92951305D01*
X137251524Y-92886260D01*
X137265300Y-92720006D01*
X137265300Y-92719993D01*
X137246135Y-92488702D01*
X137246133Y-92488691D01*
X137189157Y-92263699D01*
X137095924Y-92051151D01*
X136968983Y-91856852D01*
X136968980Y-91856849D01*
X136968979Y-91856847D01*
X136811784Y-91686087D01*
X136811779Y-91686083D01*
X136811777Y-91686081D01*
X136628634Y-91543535D01*
X136628628Y-91543531D01*
X136424504Y-91433064D01*
X136424495Y-91433061D01*
X136204984Y-91357702D01*
X136017404Y-91326401D01*
X135976049Y-91319500D01*
X135743951Y-91319500D01*
X135702596Y-91326401D01*
X135515015Y-91357702D01*
X135295504Y-91433061D01*
X135295495Y-91433064D01*
X135091371Y-91543531D01*
X135091365Y-91543535D01*
X134908222Y-91686081D01*
X134908215Y-91686087D01*
X134899484Y-91695572D01*
X134839595Y-91731561D01*
X134769757Y-91729458D01*
X134712143Y-91689932D01*
X134692075Y-91654918D01*
X134663355Y-91577915D01*
X134663350Y-91577906D01*
X134577190Y-91462812D01*
X134577187Y-91462809D01*
X134462093Y-91376649D01*
X134462086Y-91376645D01*
X134327379Y-91326403D01*
X134327372Y-91326401D01*
X134267844Y-91320000D01*
X133570000Y-91320000D01*
X133570000Y-92345810D01*
X133517453Y-92309984D01*
X133387827Y-92270000D01*
X133286276Y-92270000D01*
X133185862Y-92285135D01*
X133070000Y-92340931D01*
X133070000Y-91320000D01*
X132372155Y-91320000D01*
X132312627Y-91326401D01*
X132312620Y-91326403D01*
X132177913Y-91376645D01*
X132177906Y-91376649D01*
X132062812Y-91462809D01*
X132062809Y-91462812D01*
X131976649Y-91577906D01*
X131976645Y-91577913D01*
X131926403Y-91712620D01*
X131926401Y-91712627D01*
X131920000Y-91772155D01*
X131920000Y-92470000D01*
X132944722Y-92470000D01*
X132896375Y-92553740D01*
X132866190Y-92685992D01*
X132876327Y-92821265D01*
X132925887Y-92947541D01*
X132943797Y-92970000D01*
X131920000Y-92970000D01*
X131920000Y-93667844D01*
X110460500Y-93667844D01*
X110460500Y-88016370D01*
X115841000Y-88016370D01*
X115841001Y-88016376D01*
X115847408Y-88075983D01*
X115897702Y-88210828D01*
X115897706Y-88210835D01*
X115983952Y-88326044D01*
X115983955Y-88326047D01*
X116099164Y-88412293D01*
X116099171Y-88412297D01*
X116234017Y-88462591D01*
X116234016Y-88462591D01*
X116240944Y-88463335D01*
X116293627Y-88469000D01*
X117746372Y-88468999D01*
X117805983Y-88462591D01*
X117940831Y-88412296D01*
X118056046Y-88326046D01*
X118142296Y-88210831D01*
X118192591Y-88075983D01*
X118199000Y-88016373D01*
X118198999Y-87290000D01*
X120916451Y-87290000D01*
X120936602Y-87507476D01*
X120936603Y-87507479D01*
X120996370Y-87717542D01*
X120996373Y-87717548D01*
X121093728Y-87913062D01*
X121106487Y-87929958D01*
X121686751Y-87349695D01*
X121697985Y-87420623D01*
X121758025Y-87538459D01*
X121851541Y-87631975D01*
X121969377Y-87692015D01*
X122040303Y-87703248D01*
X121462288Y-88281262D01*
X121572448Y-88349470D01*
X121572449Y-88349471D01*
X121776103Y-88428366D01*
X121990799Y-88468500D01*
X122209201Y-88468500D01*
X122423896Y-88428366D01*
X122627552Y-88349470D01*
X122627553Y-88349469D01*
X122737710Y-88281262D01*
X122159696Y-87703248D01*
X122230623Y-87692015D01*
X122348459Y-87631975D01*
X122441975Y-87538459D01*
X122502015Y-87420623D01*
X122513248Y-87349695D01*
X123093511Y-87929958D01*
X123106273Y-87913058D01*
X123106275Y-87913055D01*
X123203626Y-87717548D01*
X123203629Y-87717542D01*
X123263396Y-87507479D01*
X123263397Y-87507476D01*
X123283549Y-87290000D01*
X123283549Y-87289999D01*
X123263397Y-87072523D01*
X123263396Y-87072520D01*
X123203629Y-86862457D01*
X123203626Y-86862451D01*
X123106272Y-86666938D01*
X123093511Y-86650040D01*
X123093510Y-86650040D01*
X122513248Y-87230303D01*
X122502015Y-87159377D01*
X122441975Y-87041541D01*
X122348459Y-86948025D01*
X122230623Y-86887985D01*
X122159696Y-86876751D01*
X122737710Y-86298736D01*
X122737709Y-86298735D01*
X122627556Y-86230531D01*
X122627550Y-86230528D01*
X122423896Y-86151633D01*
X122209201Y-86111500D01*
X121990799Y-86111500D01*
X121776103Y-86151633D01*
X121572449Y-86230528D01*
X121572443Y-86230532D01*
X121462289Y-86298735D01*
X121462288Y-86298736D01*
X122040304Y-86876751D01*
X121969377Y-86887985D01*
X121851541Y-86948025D01*
X121758025Y-87041541D01*
X121697985Y-87159377D01*
X121686751Y-87230303D01*
X121106488Y-86650040D01*
X121093727Y-86666939D01*
X120996373Y-86862451D01*
X120996370Y-86862457D01*
X120936603Y-87072520D01*
X120936602Y-87072523D01*
X120916451Y-87289999D01*
X120916451Y-87290000D01*
X118198999Y-87290000D01*
X118198999Y-86563628D01*
X118192591Y-86504017D01*
X118185553Y-86485148D01*
X118142297Y-86369171D01*
X118142293Y-86369164D01*
X118056047Y-86253955D01*
X118056044Y-86253952D01*
X117940835Y-86167706D01*
X117940828Y-86167702D01*
X117805982Y-86117408D01*
X117805983Y-86117408D01*
X117746383Y-86111001D01*
X117746381Y-86111000D01*
X117746373Y-86111000D01*
X117746364Y-86111000D01*
X116293629Y-86111000D01*
X116293623Y-86111001D01*
X116234016Y-86117408D01*
X116099171Y-86167702D01*
X116099164Y-86167706D01*
X115983955Y-86253952D01*
X115983952Y-86253955D01*
X115897706Y-86369164D01*
X115897702Y-86369171D01*
X115847408Y-86504017D01*
X115843089Y-86544197D01*
X115841001Y-86563623D01*
X115841000Y-86563635D01*
X115841000Y-88016370D01*
X110460500Y-88016370D01*
X110460500Y-84892135D01*
X124909500Y-84892135D01*
X124909501Y-87487862D01*
X124909501Y-87487876D01*
X124915908Y-87547483D01*
X124966202Y-87682328D01*
X124966206Y-87682335D01*
X125052452Y-87797544D01*
X125052455Y-87797547D01*
X125167664Y-87883793D01*
X125167671Y-87883797D01*
X125302517Y-87934091D01*
X125302516Y-87934091D01*
X125309444Y-87934835D01*
X125362127Y-87940500D01*
X127357872Y-87940499D01*
X127417483Y-87934091D01*
X127552331Y-87883796D01*
X127667546Y-87797546D01*
X127753796Y-87682331D01*
X127766163Y-87649170D01*
X127808033Y-87593237D01*
X127873497Y-87568818D01*
X127941770Y-87583668D01*
X127958508Y-87594649D01*
X128104203Y-87708048D01*
X128104207Y-87708051D01*
X128315544Y-87822421D01*
X128315550Y-87822423D01*
X128542823Y-87900446D01*
X128649999Y-87918330D01*
X128650000Y-87918330D01*
X128650000Y-86625501D01*
X128757685Y-86674680D01*
X128864237Y-86690000D01*
X128935763Y-86690000D01*
X129042315Y-86674680D01*
X129150000Y-86625501D01*
X129150000Y-87918330D01*
X129257176Y-87900446D01*
X129484449Y-87822423D01*
X129484455Y-87822421D01*
X129695790Y-87708052D01*
X129885422Y-87560455D01*
X130048177Y-87383656D01*
X130065891Y-87356543D01*
X130119036Y-87311185D01*
X130188267Y-87301760D01*
X130251603Y-87331260D01*
X130273504Y-87356533D01*
X130291429Y-87383969D01*
X130454236Y-87560825D01*
X130454239Y-87560827D01*
X130454242Y-87560830D01*
X130643924Y-87708466D01*
X130643930Y-87708470D01*
X130643933Y-87708472D01*
X130855344Y-87822882D01*
X130855347Y-87822883D01*
X131082699Y-87900933D01*
X131082701Y-87900933D01*
X131082703Y-87900934D01*
X131319808Y-87940500D01*
X131319809Y-87940500D01*
X131560191Y-87940500D01*
X131560192Y-87940500D01*
X131797297Y-87900934D01*
X132024656Y-87822882D01*
X132236067Y-87708472D01*
X132425764Y-87560825D01*
X132588571Y-87383969D01*
X132720049Y-87182728D01*
X132816610Y-86962591D01*
X132875620Y-86729563D01*
X132890500Y-86549990D01*
X132890500Y-86360001D01*
X137094532Y-86360001D01*
X137114364Y-86586686D01*
X137114366Y-86586697D01*
X137173258Y-86806488D01*
X137173261Y-86806497D01*
X137269431Y-87012732D01*
X137269432Y-87012734D01*
X137399954Y-87199141D01*
X137560858Y-87360045D01*
X137560861Y-87360047D01*
X137747266Y-87490568D01*
X137953504Y-87586739D01*
X137953509Y-87586740D01*
X137953511Y-87586741D01*
X138006415Y-87600916D01*
X138173308Y-87645635D01*
X138335230Y-87659801D01*
X138399998Y-87665468D01*
X138400000Y-87665468D01*
X138400002Y-87665468D01*
X138456673Y-87660509D01*
X138626692Y-87645635D01*
X138846496Y-87586739D01*
X139052734Y-87490568D01*
X139239139Y-87360047D01*
X139400047Y-87199139D01*
X139530568Y-87012734D01*
X139537893Y-86997023D01*
X139584062Y-86944586D01*
X139651254Y-86925432D01*
X139718136Y-86945645D01*
X139762657Y-86997023D01*
X139769865Y-87012481D01*
X139769866Y-87012483D01*
X139820973Y-87085471D01*
X139820974Y-87085472D01*
X140502046Y-86404399D01*
X140514835Y-86485148D01*
X140572359Y-86598045D01*
X140661955Y-86687641D01*
X140774852Y-86745165D01*
X140855599Y-86757953D01*
X140174526Y-87439025D01*
X140174526Y-87439026D01*
X140247512Y-87490131D01*
X140247516Y-87490133D01*
X140453673Y-87586265D01*
X140453682Y-87586269D01*
X140673389Y-87645139D01*
X140673400Y-87645141D01*
X140899998Y-87664966D01*
X140900002Y-87664966D01*
X141126599Y-87645141D01*
X141126610Y-87645139D01*
X141346317Y-87586269D01*
X141346331Y-87586264D01*
X141552478Y-87490136D01*
X141625472Y-87439025D01*
X140944401Y-86757953D01*
X141025148Y-86745165D01*
X141138045Y-86687641D01*
X141227641Y-86598045D01*
X141285165Y-86485148D01*
X141297953Y-86404400D01*
X141979025Y-87085472D01*
X142030136Y-87012478D01*
X142126264Y-86806331D01*
X142126269Y-86806317D01*
X142185139Y-86586610D01*
X142185141Y-86586599D01*
X142204966Y-86360002D01*
X142204966Y-86359997D01*
X142185141Y-86133400D01*
X142185139Y-86133389D01*
X142126269Y-85913682D01*
X142126265Y-85913673D01*
X142030133Y-85707516D01*
X142030131Y-85707512D01*
X141979026Y-85634526D01*
X141979025Y-85634526D01*
X141297953Y-86315598D01*
X141285165Y-86234852D01*
X141227641Y-86121955D01*
X141138045Y-86032359D01*
X141025148Y-85974835D01*
X140944400Y-85962046D01*
X141625472Y-85280974D01*
X141625471Y-85280973D01*
X141552483Y-85229866D01*
X141552481Y-85229865D01*
X141346326Y-85133734D01*
X141346317Y-85133730D01*
X141126610Y-85074860D01*
X141126599Y-85074858D01*
X140900002Y-85055034D01*
X140899998Y-85055034D01*
X140673400Y-85074858D01*
X140673389Y-85074860D01*
X140453682Y-85133730D01*
X140453673Y-85133734D01*
X140247513Y-85229868D01*
X140174527Y-85280972D01*
X140174526Y-85280973D01*
X140855600Y-85962046D01*
X140774852Y-85974835D01*
X140661955Y-86032359D01*
X140572359Y-86121955D01*
X140514835Y-86234852D01*
X140502046Y-86315599D01*
X139820973Y-85634526D01*
X139820972Y-85634527D01*
X139769868Y-85707512D01*
X139762656Y-85722979D01*
X139716482Y-85775417D01*
X139649288Y-85794567D01*
X139582407Y-85774350D01*
X139537893Y-85722976D01*
X139530568Y-85707266D01*
X139400047Y-85520861D01*
X139400045Y-85520858D01*
X139239141Y-85359954D01*
X139052734Y-85229432D01*
X139052732Y-85229431D01*
X138846497Y-85133261D01*
X138846488Y-85133258D01*
X138626697Y-85074366D01*
X138626693Y-85074365D01*
X138626692Y-85074365D01*
X138626691Y-85074364D01*
X138626686Y-85074364D01*
X138400002Y-85054532D01*
X138399998Y-85054532D01*
X138173313Y-85074364D01*
X138173302Y-85074366D01*
X137953511Y-85133258D01*
X137953502Y-85133261D01*
X137747267Y-85229431D01*
X137747265Y-85229432D01*
X137560858Y-85359954D01*
X137399954Y-85520858D01*
X137269432Y-85707265D01*
X137269431Y-85707267D01*
X137173261Y-85913502D01*
X137173258Y-85913511D01*
X137114366Y-86133302D01*
X137114364Y-86133313D01*
X137094532Y-86359998D01*
X137094532Y-86360001D01*
X132890500Y-86360001D01*
X132890500Y-85830010D01*
X132875620Y-85650437D01*
X132816610Y-85417409D01*
X132720049Y-85197272D01*
X132588571Y-84996031D01*
X132425764Y-84819175D01*
X132425759Y-84819171D01*
X132425757Y-84819169D01*
X132236075Y-84671533D01*
X132236069Y-84671529D01*
X132024657Y-84557118D01*
X132024652Y-84557116D01*
X131797300Y-84479066D01*
X131598593Y-84445908D01*
X131560192Y-84439500D01*
X131319808Y-84439500D01*
X131281407Y-84445908D01*
X131082699Y-84479066D01*
X130855347Y-84557116D01*
X130855342Y-84557118D01*
X130643930Y-84671529D01*
X130643924Y-84671533D01*
X130454242Y-84819169D01*
X130454239Y-84819172D01*
X130454236Y-84819174D01*
X130454236Y-84819175D01*
X130441954Y-84832517D01*
X130291428Y-84996031D01*
X130273509Y-85023459D01*
X130220362Y-85068815D01*
X130151130Y-85078238D01*
X130087795Y-85048735D01*
X130065893Y-85023458D01*
X130048178Y-84996344D01*
X129885422Y-84819544D01*
X129695790Y-84671947D01*
X129484455Y-84557578D01*
X129484449Y-84557576D01*
X129257176Y-84479553D01*
X129150000Y-84461668D01*
X129150000Y-85754498D01*
X129042315Y-85705320D01*
X128935763Y-85690000D01*
X128864237Y-85690000D01*
X128757685Y-85705320D01*
X128650000Y-85754498D01*
X128650000Y-84461668D01*
X128649999Y-84461668D01*
X128542823Y-84479553D01*
X128315550Y-84557576D01*
X128315544Y-84557578D01*
X128104209Y-84671948D01*
X127958508Y-84785351D01*
X127893514Y-84810993D01*
X127824974Y-84797426D01*
X127774649Y-84748958D01*
X127766163Y-84730828D01*
X127753796Y-84697669D01*
X127753793Y-84697664D01*
X127667547Y-84582455D01*
X127667544Y-84582452D01*
X127552335Y-84496206D01*
X127552328Y-84496202D01*
X127417482Y-84445908D01*
X127417483Y-84445908D01*
X127357883Y-84439501D01*
X127357881Y-84439500D01*
X127357873Y-84439500D01*
X127357864Y-84439500D01*
X125362129Y-84439500D01*
X125362123Y-84439501D01*
X125302516Y-84445908D01*
X125167671Y-84496202D01*
X125167664Y-84496206D01*
X125052455Y-84582452D01*
X125052452Y-84582455D01*
X124966206Y-84697664D01*
X124966202Y-84697671D01*
X124915908Y-84832517D01*
X124909501Y-84892116D01*
X124909500Y-84892135D01*
X110460500Y-84892135D01*
X110460500Y-69990001D01*
X126644671Y-69990001D01*
X126646835Y-70023027D01*
X126646933Y-70029155D01*
X126645723Y-70065367D01*
X126645723Y-70065376D01*
X126656880Y-70176281D01*
X126663965Y-70284376D01*
X126663966Y-70284389D01*
X126671050Y-70320003D01*
X126671930Y-70325891D01*
X126675882Y-70365164D01*
X126700996Y-70470546D01*
X126721516Y-70573711D01*
X126721518Y-70573719D01*
X126734230Y-70611171D01*
X126735831Y-70616727D01*
X126745728Y-70658252D01*
X126745730Y-70658257D01*
X126745731Y-70658261D01*
X126783542Y-70756437D01*
X126808825Y-70830917D01*
X126816348Y-70853076D01*
X126835263Y-70891433D01*
X126837515Y-70896573D01*
X126854019Y-70939428D01*
X126854023Y-70939436D01*
X126903076Y-71028946D01*
X126946822Y-71117655D01*
X126946833Y-71117673D01*
X126972380Y-71155907D01*
X126975199Y-71160557D01*
X126998822Y-71203659D01*
X126998829Y-71203671D01*
X127056671Y-71282175D01*
X127058308Y-71284507D01*
X127099366Y-71345955D01*
X127110727Y-71362957D01*
X127143182Y-71399965D01*
X127146482Y-71404068D01*
X127177551Y-71446235D01*
X127243114Y-71514028D01*
X127245160Y-71516249D01*
X127305242Y-71584758D01*
X127340025Y-71615262D01*
X127344670Y-71619336D01*
X127348358Y-71622849D01*
X127387018Y-71662822D01*
X127387020Y-71662824D01*
X127414375Y-71684426D01*
X127458495Y-71719267D01*
X127460950Y-71721311D01*
X127527040Y-71779270D01*
X127527040Y-71779271D01*
X127573336Y-71810205D01*
X127577307Y-71813092D01*
X127623485Y-71849558D01*
X127699059Y-71894320D01*
X127701897Y-71896106D01*
X127753617Y-71930665D01*
X127772338Y-71943174D01*
X127789190Y-71951484D01*
X127825187Y-71969236D01*
X127829318Y-71971473D01*
X127863458Y-71991694D01*
X127882717Y-72003102D01*
X127882722Y-72003104D01*
X127882730Y-72003109D01*
X127960665Y-72036156D01*
X127963826Y-72037604D01*
X128036923Y-72073652D01*
X128095759Y-72093624D01*
X128100014Y-72095245D01*
X128160128Y-72120736D01*
X128238640Y-72142242D01*
X128242160Y-72143320D01*
X128316278Y-72168481D01*
X128374967Y-72180154D01*
X128380384Y-72181232D01*
X128384658Y-72182241D01*
X128450729Y-72200340D01*
X128528224Y-72210761D01*
X128532037Y-72211397D01*
X128605620Y-72226034D01*
X128674067Y-72230519D01*
X128678246Y-72230937D01*
X128749347Y-72240500D01*
X128824302Y-72240500D01*
X128828349Y-72240632D01*
X128860372Y-72242731D01*
X128899994Y-72245329D01*
X128900000Y-72245329D01*
X128900004Y-72245329D01*
X128910762Y-72244623D01*
X128972081Y-72240604D01*
X128975222Y-72240500D01*
X128975244Y-72240500D01*
X129048842Y-72235573D01*
X129194380Y-72226034D01*
X129194409Y-72226028D01*
X129195522Y-72225882D01*
X129199478Y-72225489D01*
X129200634Y-72225412D01*
X129343658Y-72196341D01*
X129483722Y-72168481D01*
X129484442Y-72168236D01*
X129492018Y-72166185D01*
X129495903Y-72165396D01*
X129630821Y-72118547D01*
X129763077Y-72073652D01*
X129766687Y-72071871D01*
X129773754Y-72068914D01*
X129780537Y-72066560D01*
X129905220Y-72003554D01*
X130027665Y-71943172D01*
X130033700Y-71939138D01*
X130040164Y-71935364D01*
X130049459Y-71930668D01*
X130162040Y-71853385D01*
X130272957Y-71779273D01*
X130280840Y-71772358D01*
X130286622Y-71767863D01*
X130297869Y-71760144D01*
X130396824Y-71670643D01*
X130494758Y-71584758D01*
X130503799Y-71574446D01*
X130508823Y-71569345D01*
X130521333Y-71558032D01*
X130605443Y-71458545D01*
X130689273Y-71362957D01*
X130698687Y-71348866D01*
X130702895Y-71343279D01*
X130707451Y-71337891D01*
X130715865Y-71327939D01*
X130784276Y-71220775D01*
X130853172Y-71117665D01*
X130862098Y-71099562D01*
X130865441Y-71093631D01*
X130877993Y-71073970D01*
X130930195Y-70961476D01*
X130983652Y-70853077D01*
X130991179Y-70830899D01*
X130993641Y-70824752D01*
X131004823Y-70800658D01*
X131040632Y-70685219D01*
X131078481Y-70573722D01*
X131083677Y-70547597D01*
X131085271Y-70541316D01*
X131094093Y-70512879D01*
X131113676Y-70396782D01*
X131136034Y-70284380D01*
X131137987Y-70254576D01*
X131138714Y-70248342D01*
X131144209Y-70215770D01*
X131148038Y-70101231D01*
X131150389Y-70065367D01*
X131155329Y-69990005D01*
X131155329Y-69990001D01*
X131155329Y-69990000D01*
X131153162Y-69956955D01*
X131153065Y-69950849D01*
X131154277Y-69914631D01*
X131143119Y-69803718D01*
X131136034Y-69695620D01*
X131128944Y-69659977D01*
X131128068Y-69654107D01*
X131125093Y-69624537D01*
X131124118Y-69614838D01*
X131099003Y-69509454D01*
X131078481Y-69406278D01*
X131065764Y-69368816D01*
X131064169Y-69363283D01*
X131054269Y-69321739D01*
X131016457Y-69223562D01*
X130983652Y-69126923D01*
X130964732Y-69088556D01*
X130962485Y-69083429D01*
X130945977Y-69040566D01*
X130914285Y-68982737D01*
X130896919Y-68951046D01*
X130853173Y-68862339D01*
X130853172Y-68862336D01*
X130827612Y-68824083D01*
X130824798Y-68819444D01*
X130801175Y-68776335D01*
X130743312Y-68697802D01*
X130741706Y-68695514D01*
X130689273Y-68617043D01*
X130656817Y-68580033D01*
X130653516Y-68575930D01*
X130627863Y-68541114D01*
X130622446Y-68533762D01*
X130602801Y-68513449D01*
X130556884Y-68465970D01*
X130554838Y-68463749D01*
X130494760Y-68395244D01*
X130455322Y-68360656D01*
X130451635Y-68357144D01*
X130412981Y-68317176D01*
X130341514Y-68260740D01*
X130339059Y-68258696D01*
X130272960Y-68200729D01*
X130226656Y-68169788D01*
X130222677Y-68166894D01*
X130176517Y-68130443D01*
X130150260Y-68114891D01*
X130100918Y-68085666D01*
X130098089Y-68083884D01*
X130027666Y-68036828D01*
X129974821Y-68010767D01*
X129970668Y-68008518D01*
X129917270Y-67976891D01*
X129917266Y-67976889D01*
X129917262Y-67976887D01*
X129887641Y-67964327D01*
X129839346Y-67943847D01*
X129836157Y-67942386D01*
X129763075Y-67906347D01*
X129704243Y-67886375D01*
X129699969Y-67884746D01*
X129661174Y-67868297D01*
X129639872Y-67859264D01*
X129639868Y-67859263D01*
X129639866Y-67859262D01*
X129561365Y-67837757D01*
X129557815Y-67836670D01*
X129483734Y-67811522D01*
X129483723Y-67811519D01*
X129483722Y-67811519D01*
X129419608Y-67798765D01*
X129415333Y-67797756D01*
X129349281Y-67779662D01*
X129349265Y-67779658D01*
X129271792Y-67769239D01*
X129267962Y-67768601D01*
X129221006Y-67759262D01*
X129194380Y-67753966D01*
X129194377Y-67753965D01*
X129194374Y-67753965D01*
X129125959Y-67749481D01*
X129121750Y-67749061D01*
X129087282Y-67744426D01*
X129050653Y-67739500D01*
X129050650Y-67739500D01*
X128975698Y-67739500D01*
X128971650Y-67739367D01*
X128939627Y-67737268D01*
X128900006Y-67734671D01*
X128900002Y-67734671D01*
X128900000Y-67734671D01*
X128851934Y-67737821D01*
X128827985Y-67739391D01*
X128824765Y-67739499D01*
X128751157Y-67744426D01*
X128605620Y-67753965D01*
X128604420Y-67754123D01*
X128600506Y-67754511D01*
X128599375Y-67754587D01*
X128599372Y-67754587D01*
X128599366Y-67754588D01*
X128456341Y-67783658D01*
X128316277Y-67811518D01*
X128316270Y-67811520D01*
X128315508Y-67811779D01*
X128307943Y-67813822D01*
X128304098Y-67814603D01*
X128240548Y-67836670D01*
X128169178Y-67861452D01*
X128123442Y-67876977D01*
X128036927Y-67906346D01*
X128036922Y-67906348D01*
X128033320Y-67908124D01*
X128026241Y-67911086D01*
X128019462Y-67913440D01*
X127894757Y-67976456D01*
X127772343Y-68036823D01*
X127772328Y-68036832D01*
X127766301Y-68040858D01*
X127759828Y-68044637D01*
X127750544Y-68049329D01*
X127637943Y-68126625D01*
X127554534Y-68182358D01*
X127527043Y-68200727D01*
X127519156Y-68207642D01*
X127513373Y-68212138D01*
X127502132Y-68219854D01*
X127403175Y-68309356D01*
X127305241Y-68395242D01*
X127296196Y-68405555D01*
X127291175Y-68410653D01*
X127278668Y-68421966D01*
X127194556Y-68521454D01*
X127110726Y-68617042D01*
X127101308Y-68631136D01*
X127097106Y-68636716D01*
X127084141Y-68652052D01*
X127084140Y-68652053D01*
X127015715Y-68759237D01*
X126946830Y-68862331D01*
X126937905Y-68880427D01*
X126934560Y-68886362D01*
X126922006Y-68906031D01*
X126869801Y-69018530D01*
X126816350Y-69126918D01*
X126816345Y-69126930D01*
X126808822Y-69149089D01*
X126806353Y-69155257D01*
X126795176Y-69179344D01*
X126795171Y-69179358D01*
X126759367Y-69294780D01*
X126721518Y-69406279D01*
X126721516Y-69406288D01*
X126716320Y-69432410D01*
X126714728Y-69438683D01*
X126705907Y-69467119D01*
X126686323Y-69583216D01*
X126686323Y-69583217D01*
X126665158Y-69689630D01*
X126663965Y-69695627D01*
X126663964Y-69695628D01*
X126662012Y-69725416D01*
X126661281Y-69731673D01*
X126655791Y-69764231D01*
X126651961Y-69878768D01*
X126644671Y-69990001D01*
X110460500Y-69990001D01*
X110460500Y-55883195D01*
X142436140Y-55883195D01*
X142440525Y-55929583D01*
X142440800Y-55935421D01*
X142440800Y-85923555D01*
X142439075Y-85939172D01*
X142439361Y-85939199D01*
X142438626Y-85946965D01*
X142440800Y-86016114D01*
X142440800Y-86045643D01*
X142440801Y-86045660D01*
X142441668Y-86052531D01*
X142442126Y-86058350D01*
X142443590Y-86104924D01*
X142443591Y-86104927D01*
X142449180Y-86124167D01*
X142453124Y-86143211D01*
X142455636Y-86163092D01*
X142457462Y-86167704D01*
X142472790Y-86206419D01*
X142474682Y-86211947D01*
X142487681Y-86256688D01*
X142497880Y-86273934D01*
X142506438Y-86291403D01*
X142513814Y-86310032D01*
X142541198Y-86347723D01*
X142544406Y-86352607D01*
X142568127Y-86392716D01*
X142568133Y-86392724D01*
X142582290Y-86406880D01*
X142594928Y-86421676D01*
X142606705Y-86437886D01*
X142606706Y-86437887D01*
X142642609Y-86467588D01*
X142646920Y-86471510D01*
X151770585Y-95595176D01*
X153540174Y-97364765D01*
X153573659Y-97426088D01*
X153572268Y-97484538D01*
X153549652Y-97568944D01*
X153549651Y-97568951D01*
X153529437Y-97799998D01*
X153529437Y-97800001D01*
X153549650Y-98031044D01*
X153549651Y-98031051D01*
X153609678Y-98255074D01*
X153609679Y-98255076D01*
X153609680Y-98255079D01*
X153707699Y-98465282D01*
X153840730Y-98655269D01*
X154004731Y-98819270D01*
X154194718Y-98952301D01*
X154404921Y-99050320D01*
X154628950Y-99110349D01*
X154793985Y-99124787D01*
X154859998Y-99130563D01*
X154860000Y-99130563D01*
X154860002Y-99130563D01*
X154917762Y-99125509D01*
X155091050Y-99110349D01*
X155315079Y-99050320D01*
X155525282Y-98952301D01*
X155715269Y-98819270D01*
X155879270Y-98655269D01*
X156012301Y-98465282D01*
X156110320Y-98255079D01*
X156170349Y-98031050D01*
X156190563Y-97800000D01*
X156190562Y-97799994D01*
X156174723Y-97618948D01*
X156170349Y-97568950D01*
X156110320Y-97344921D01*
X156012301Y-97134719D01*
X156012299Y-97134716D01*
X156012298Y-97134714D01*
X155879273Y-96944735D01*
X155879268Y-96944729D01*
X155715269Y-96780730D01*
X155675701Y-96753024D01*
X155525282Y-96647699D01*
X155315079Y-96549680D01*
X155315076Y-96549679D01*
X155315074Y-96549678D01*
X155091051Y-96489651D01*
X155091044Y-96489650D01*
X154860002Y-96469437D01*
X154859998Y-96469437D01*
X154737274Y-96480174D01*
X154628950Y-96489651D01*
X154628948Y-96489651D01*
X154628944Y-96489652D01*
X154544538Y-96512268D01*
X154474688Y-96510605D01*
X154424765Y-96480174D01*
X143728119Y-85783528D01*
X143694634Y-85722205D01*
X143691800Y-85695847D01*
X143691800Y-82815752D01*
X143711485Y-82748713D01*
X143764289Y-82702958D01*
X143833447Y-82693014D01*
X143897003Y-82722039D01*
X143903481Y-82728071D01*
X158540174Y-97364765D01*
X158573659Y-97426088D01*
X158572268Y-97484538D01*
X158549652Y-97568944D01*
X158549651Y-97568951D01*
X158529437Y-97799998D01*
X158529437Y-97800001D01*
X158549650Y-98031044D01*
X158549651Y-98031051D01*
X158609678Y-98255074D01*
X158609679Y-98255076D01*
X158609680Y-98255079D01*
X158707699Y-98465282D01*
X158840730Y-98655269D01*
X159004731Y-98819270D01*
X159194718Y-98952301D01*
X159404921Y-99050320D01*
X159628950Y-99110349D01*
X159793985Y-99124787D01*
X159859998Y-99130563D01*
X159860000Y-99130563D01*
X159860002Y-99130563D01*
X159917762Y-99125509D01*
X160091050Y-99110349D01*
X160315079Y-99050320D01*
X160525282Y-98952301D01*
X160715269Y-98819270D01*
X160879270Y-98655269D01*
X161012301Y-98465282D01*
X161110320Y-98255079D01*
X161170349Y-98031050D01*
X161190563Y-97800000D01*
X161190562Y-97799994D01*
X161174723Y-97618948D01*
X161170349Y-97568950D01*
X161110320Y-97344921D01*
X161012301Y-97134719D01*
X161012299Y-97134716D01*
X161012298Y-97134714D01*
X160879273Y-96944735D01*
X160879268Y-96944729D01*
X160715269Y-96780730D01*
X160675701Y-96753024D01*
X160525282Y-96647699D01*
X160315079Y-96549680D01*
X160315076Y-96549679D01*
X160315074Y-96549678D01*
X160091051Y-96489651D01*
X160091044Y-96489650D01*
X159860002Y-96469437D01*
X159859998Y-96469437D01*
X159628955Y-96489650D01*
X159628941Y-96489653D01*
X159544537Y-96512268D01*
X159474687Y-96510605D01*
X159424764Y-96480174D01*
X144191919Y-81247328D01*
X144158434Y-81186005D01*
X144155600Y-81159647D01*
X144155600Y-70777629D01*
X144175285Y-70710590D01*
X144228089Y-70664835D01*
X144297247Y-70654891D01*
X144360803Y-70683916D01*
X144390600Y-70722358D01*
X144484217Y-70910368D01*
X144522812Y-70961476D01*
X144613159Y-71081114D01*
X144771278Y-71225258D01*
X144771283Y-71225261D01*
X144771286Y-71225263D01*
X144953186Y-71337891D01*
X144953187Y-71337891D01*
X144953190Y-71337893D01*
X145152703Y-71415185D01*
X145363020Y-71454500D01*
X145363022Y-71454500D01*
X145576978Y-71454500D01*
X145576980Y-71454500D01*
X145787297Y-71415185D01*
X145986810Y-71337893D01*
X146168722Y-71225258D01*
X146326841Y-71081114D01*
X146455781Y-70910370D01*
X146551151Y-70718840D01*
X146551151Y-70718837D01*
X146551153Y-70718835D01*
X146592441Y-70573722D01*
X146609704Y-70513048D01*
X146629446Y-70300000D01*
X146624945Y-70251432D01*
X146609704Y-70086952D01*
X146609703Y-70086949D01*
X146603562Y-70065367D01*
X146593259Y-70029155D01*
X146551153Y-69881164D01*
X146551150Y-69881158D01*
X146512590Y-69803718D01*
X146455781Y-69689630D01*
X146326841Y-69518886D01*
X146168722Y-69374742D01*
X146168716Y-69374738D01*
X146168713Y-69374736D01*
X145986813Y-69262108D01*
X145986807Y-69262106D01*
X145787297Y-69184815D01*
X145611153Y-69151888D01*
X145548874Y-69120221D01*
X145513601Y-69059908D01*
X145516535Y-68990100D01*
X145556744Y-68932960D01*
X145611152Y-68908112D01*
X145787297Y-68875185D01*
X145986810Y-68797893D01*
X146168722Y-68685258D01*
X146326841Y-68541114D01*
X146434960Y-68397940D01*
X146491068Y-68356304D01*
X146560780Y-68351612D01*
X146621595Y-68384986D01*
X151937981Y-73701371D01*
X151971466Y-73762694D01*
X151974300Y-73789052D01*
X151974300Y-81534455D01*
X151972575Y-81550072D01*
X151972861Y-81550099D01*
X151972126Y-81557865D01*
X151974300Y-81627014D01*
X151974300Y-81656543D01*
X151974301Y-81656560D01*
X151975168Y-81663431D01*
X151975626Y-81669250D01*
X151977090Y-81715824D01*
X151977091Y-81715827D01*
X151982680Y-81735067D01*
X151986624Y-81754111D01*
X151989136Y-81773991D01*
X152006290Y-81817319D01*
X152008182Y-81822847D01*
X152021181Y-81867588D01*
X152031380Y-81884834D01*
X152039938Y-81902303D01*
X152047314Y-81920932D01*
X152074698Y-81958623D01*
X152077906Y-81963507D01*
X152101627Y-82003616D01*
X152101633Y-82003624D01*
X152115790Y-82017780D01*
X152128428Y-82032576D01*
X152140205Y-82048786D01*
X152140206Y-82048787D01*
X152176109Y-82078488D01*
X152180420Y-82082410D01*
X154537510Y-84439500D01*
X156455259Y-86357249D01*
X156488744Y-86418572D01*
X156483760Y-86488264D01*
X156441888Y-86544197D01*
X156376424Y-86568614D01*
X156357849Y-86568548D01*
X156180000Y-86554551D01*
X155928848Y-86574317D01*
X155683889Y-86633126D01*
X155451140Y-86729533D01*
X155236346Y-86861160D01*
X155236343Y-86861161D01*
X155044776Y-87024776D01*
X154881161Y-87216343D01*
X154881160Y-87216346D01*
X154749533Y-87431140D01*
X154653126Y-87663889D01*
X154594317Y-87908848D01*
X154574551Y-88160000D01*
X154594317Y-88411151D01*
X154653126Y-88656110D01*
X154749533Y-88888859D01*
X154881160Y-89103653D01*
X154881161Y-89103656D01*
X154881164Y-89103659D01*
X155044776Y-89295224D01*
X155193066Y-89421875D01*
X155236343Y-89458838D01*
X155236346Y-89458839D01*
X155451140Y-89590466D01*
X155683889Y-89686873D01*
X155928852Y-89745683D01*
X156180000Y-89765449D01*
X156431148Y-89745683D01*
X156676111Y-89686873D01*
X156908859Y-89590466D01*
X157123659Y-89458836D01*
X157315224Y-89295224D01*
X157478836Y-89103659D01*
X157610466Y-88888859D01*
X157706873Y-88656111D01*
X157765683Y-88411148D01*
X157785449Y-88160000D01*
X157771451Y-87982147D01*
X157785815Y-87913773D01*
X157834866Y-87864016D01*
X157903031Y-87848677D01*
X157968668Y-87872626D01*
X157982749Y-87884739D01*
X162383144Y-92285135D01*
X166769053Y-96671044D01*
X166802538Y-96732367D01*
X166797554Y-96802059D01*
X166769054Y-96846405D01*
X166670732Y-96944728D01*
X166670726Y-96944735D01*
X166537701Y-97134714D01*
X166537699Y-97134718D01*
X166439681Y-97344917D01*
X166379651Y-97568948D01*
X166379650Y-97568955D01*
X166359437Y-97799998D01*
X166359437Y-97800001D01*
X166379650Y-98031044D01*
X166379651Y-98031051D01*
X166439678Y-98255074D01*
X166439679Y-98255076D01*
X166439680Y-98255079D01*
X166537699Y-98465282D01*
X166670730Y-98655269D01*
X166834731Y-98819270D01*
X167024718Y-98952301D01*
X167234921Y-99050320D01*
X167458950Y-99110349D01*
X167623985Y-99124787D01*
X167689998Y-99130563D01*
X167690000Y-99130563D01*
X167690002Y-99130563D01*
X167747762Y-99125509D01*
X167921050Y-99110349D01*
X168145079Y-99050320D01*
X168355282Y-98952301D01*
X168545269Y-98819270D01*
X168709270Y-98655269D01*
X168842301Y-98465282D01*
X168940320Y-98255079D01*
X169000349Y-98031050D01*
X169020563Y-97800000D01*
X169020562Y-97799994D01*
X169004723Y-97618948D01*
X169000349Y-97568950D01*
X168940320Y-97344921D01*
X168842301Y-97134719D01*
X168842299Y-97134716D01*
X168842298Y-97134714D01*
X168709273Y-96944735D01*
X168709268Y-96944729D01*
X168545269Y-96780730D01*
X168505701Y-96753024D01*
X168355282Y-96647699D01*
X168355279Y-96647697D01*
X168353830Y-96646683D01*
X168310206Y-96592106D01*
X168301931Y-96560642D01*
X168300664Y-96550608D01*
X168283501Y-96507259D01*
X168281614Y-96501746D01*
X168278100Y-96489652D01*
X168268617Y-96457010D01*
X168258421Y-96439769D01*
X168249860Y-96422293D01*
X168242486Y-96403669D01*
X168242486Y-96403667D01*
X168232474Y-96389888D01*
X168215083Y-96365950D01*
X168211900Y-96361105D01*
X168188170Y-96320979D01*
X168188165Y-96320973D01*
X168174005Y-96306813D01*
X168161370Y-96292020D01*
X168149593Y-96275812D01*
X168113693Y-96246113D01*
X168109381Y-96242190D01*
X161744466Y-89877275D01*
X161710981Y-89815952D01*
X161715965Y-89746260D01*
X161757837Y-89690327D01*
X161784695Y-89675033D01*
X161988855Y-89590468D01*
X161988856Y-89590467D01*
X161988859Y-89590466D01*
X162203659Y-89458836D01*
X162395224Y-89295224D01*
X162558836Y-89103659D01*
X162690466Y-88888859D01*
X162786873Y-88656111D01*
X162845683Y-88411148D01*
X162865449Y-88160000D01*
X162845683Y-87908852D01*
X162786873Y-87663889D01*
X162757608Y-87593237D01*
X162690466Y-87431140D01*
X162558839Y-87216346D01*
X162558838Y-87216343D01*
X162447062Y-87085471D01*
X162395224Y-87024776D01*
X162268571Y-86916604D01*
X162203656Y-86861161D01*
X162203653Y-86861160D01*
X161988859Y-86729533D01*
X161756110Y-86633126D01*
X161511151Y-86574317D01*
X161260000Y-86554551D01*
X161008848Y-86574317D01*
X160763889Y-86633126D01*
X160531140Y-86729533D01*
X160316346Y-86861160D01*
X160316343Y-86861161D01*
X160124776Y-87024776D01*
X159961161Y-87216343D01*
X159961160Y-87216346D01*
X159829533Y-87431140D01*
X159744966Y-87635305D01*
X159701125Y-87689708D01*
X159634831Y-87711773D01*
X159567131Y-87694494D01*
X159542724Y-87675533D01*
X153261619Y-81394428D01*
X153228134Y-81333105D01*
X153225300Y-81306747D01*
X153225300Y-73561342D01*
X153227024Y-73545722D01*
X153226739Y-73545696D01*
X153227471Y-73537940D01*
X153227473Y-73537933D01*
X153225300Y-73468785D01*
X153225300Y-73439250D01*
X153224431Y-73432372D01*
X153223972Y-73426543D01*
X153222509Y-73379972D01*
X153216922Y-73360744D01*
X153212974Y-73341684D01*
X153210463Y-73321804D01*
X153193312Y-73278487D01*
X153191419Y-73272958D01*
X153178418Y-73228209D01*
X153178416Y-73228206D01*
X153168223Y-73210971D01*
X153159661Y-73193494D01*
X153152287Y-73174870D01*
X153152286Y-73174868D01*
X153124879Y-73137145D01*
X153121688Y-73132286D01*
X153097972Y-73092183D01*
X153097965Y-73092174D01*
X153083806Y-73078015D01*
X153071168Y-73063219D01*
X153059394Y-73047013D01*
X153023488Y-73017309D01*
X153019176Y-73013386D01*
X146112003Y-66106212D01*
X146102180Y-66093950D01*
X146101959Y-66094134D01*
X146096986Y-66088123D01*
X146046564Y-66040773D01*
X146036119Y-66030328D01*
X146025675Y-66019883D01*
X146020186Y-66015625D01*
X146015761Y-66011847D01*
X145981782Y-65979938D01*
X145981780Y-65979936D01*
X145981777Y-65979935D01*
X145964229Y-65970288D01*
X145947963Y-65959604D01*
X145932133Y-65947325D01*
X145889368Y-65928818D01*
X145884122Y-65926248D01*
X145843293Y-65903803D01*
X145843290Y-65903802D01*
X145823889Y-65898820D01*
X145805491Y-65892522D01*
X145801382Y-65890744D01*
X145798079Y-65889315D01*
X145759639Y-65863192D01*
X145514400Y-65617953D01*
X145595148Y-65605165D01*
X145708045Y-65547641D01*
X145797641Y-65458045D01*
X145855165Y-65345148D01*
X145867953Y-65264400D01*
X146446019Y-65842466D01*
X146458837Y-65841576D01*
X146487315Y-65820446D01*
X146557027Y-65815756D01*
X146617839Y-65849129D01*
X156956529Y-76187819D01*
X156990014Y-76249142D01*
X156985030Y-76318834D01*
X156943158Y-76374767D01*
X156877694Y-76399184D01*
X156868848Y-76399500D01*
X155032129Y-76399500D01*
X155032123Y-76399501D01*
X154972516Y-76405908D01*
X154837671Y-76456202D01*
X154837664Y-76456206D01*
X154722455Y-76542452D01*
X154722452Y-76542455D01*
X154636206Y-76657664D01*
X154636202Y-76657671D01*
X154585908Y-76792517D01*
X154579501Y-76852116D01*
X154579501Y-76852123D01*
X154579500Y-76852135D01*
X154579500Y-79147870D01*
X154579501Y-79147876D01*
X154585908Y-79207483D01*
X154636202Y-79342328D01*
X154636206Y-79342335D01*
X154722452Y-79457544D01*
X154722455Y-79457547D01*
X154837664Y-79543793D01*
X154837671Y-79543797D01*
X154972517Y-79594091D01*
X154972516Y-79594091D01*
X154979444Y-79594835D01*
X155032127Y-79600500D01*
X157028700Y-79600499D01*
X157095739Y-79620184D01*
X157141494Y-79672987D01*
X157152700Y-79724499D01*
X157152700Y-81065855D01*
X157150975Y-81081472D01*
X157151261Y-81081499D01*
X157150526Y-81089265D01*
X157152700Y-81158414D01*
X157152700Y-81187943D01*
X157152701Y-81187960D01*
X157153568Y-81194831D01*
X157154026Y-81200650D01*
X157155490Y-81247224D01*
X157155491Y-81247227D01*
X157161080Y-81266467D01*
X157165024Y-81285511D01*
X157167536Y-81305392D01*
X157177336Y-81330145D01*
X157184690Y-81348719D01*
X157186582Y-81354247D01*
X157199581Y-81398988D01*
X157209780Y-81416234D01*
X157218338Y-81433703D01*
X157225714Y-81452332D01*
X157253098Y-81490023D01*
X157256306Y-81494907D01*
X157280027Y-81535016D01*
X157280033Y-81535024D01*
X157294190Y-81549180D01*
X157306828Y-81563976D01*
X157318605Y-81580186D01*
X157318606Y-81580187D01*
X157354509Y-81609888D01*
X157358820Y-81613810D01*
X164695358Y-88950348D01*
X172028181Y-96283171D01*
X172061666Y-96344494D01*
X172064500Y-96370852D01*
X172064500Y-96555293D01*
X172044815Y-96622332D01*
X172011624Y-96656868D01*
X171834731Y-96780730D01*
X171834729Y-96780731D01*
X171670731Y-96944729D01*
X171670726Y-96944735D01*
X171537701Y-97134714D01*
X171537699Y-97134718D01*
X171439681Y-97344917D01*
X171379651Y-97568948D01*
X171379650Y-97568955D01*
X171359437Y-97799998D01*
X171359437Y-97800001D01*
X171379650Y-98031044D01*
X171379651Y-98031051D01*
X171439678Y-98255074D01*
X171439679Y-98255076D01*
X171439680Y-98255079D01*
X171537699Y-98465282D01*
X171670730Y-98655269D01*
X171834731Y-98819270D01*
X172024718Y-98952301D01*
X172234921Y-99050320D01*
X172458950Y-99110349D01*
X172623985Y-99124787D01*
X172689998Y-99130563D01*
X172690000Y-99130563D01*
X172690002Y-99130563D01*
X172747762Y-99125509D01*
X172921050Y-99110349D01*
X173145079Y-99050320D01*
X173355282Y-98952301D01*
X173545269Y-98819270D01*
X173709270Y-98655269D01*
X173842301Y-98465282D01*
X173940320Y-98255079D01*
X174000349Y-98031050D01*
X174020563Y-97800000D01*
X174020562Y-97799994D01*
X174004723Y-97618948D01*
X174000349Y-97568950D01*
X173940320Y-97344921D01*
X173842301Y-97134719D01*
X173842299Y-97134716D01*
X173842298Y-97134714D01*
X173709273Y-96944735D01*
X173709268Y-96944729D01*
X173545269Y-96780730D01*
X173505701Y-96753024D01*
X173368375Y-96656867D01*
X173324751Y-96602291D01*
X173315500Y-96555293D01*
X173315500Y-96143142D01*
X173317224Y-96127522D01*
X173316939Y-96127496D01*
X173317671Y-96119740D01*
X173317673Y-96119733D01*
X173315500Y-96050585D01*
X173315500Y-96021050D01*
X173314631Y-96014172D01*
X173314172Y-96008343D01*
X173312709Y-95961772D01*
X173307122Y-95942544D01*
X173303174Y-95923484D01*
X173300663Y-95903604D01*
X173283512Y-95860287D01*
X173281619Y-95854758D01*
X173268618Y-95810009D01*
X173268616Y-95810006D01*
X173258423Y-95792771D01*
X173249861Y-95775294D01*
X173242487Y-95756670D01*
X173242486Y-95756668D01*
X173215079Y-95718945D01*
X173211888Y-95714086D01*
X173188172Y-95673983D01*
X173188165Y-95673974D01*
X173174006Y-95659815D01*
X173161368Y-95645019D01*
X173149594Y-95628813D01*
X173113688Y-95599109D01*
X173109376Y-95595186D01*
X158440019Y-80925828D01*
X158406534Y-80864505D01*
X158403700Y-80838147D01*
X158403700Y-78988552D01*
X158423385Y-78921513D01*
X158476189Y-78875758D01*
X158545347Y-78865814D01*
X158608903Y-78894839D01*
X158615380Y-78900870D01*
X163451484Y-83736975D01*
X167738297Y-88023788D01*
X167748122Y-88036051D01*
X167748343Y-88035869D01*
X167753314Y-88041878D01*
X167779317Y-88066295D01*
X167803735Y-88089226D01*
X167824629Y-88110120D01*
X167830111Y-88114373D01*
X167834543Y-88118157D01*
X167868518Y-88150062D01*
X167886076Y-88159714D01*
X167902335Y-88170395D01*
X167918164Y-88182673D01*
X167960938Y-88201182D01*
X167966156Y-88203738D01*
X168007008Y-88226197D01*
X168026416Y-88231180D01*
X168044817Y-88237480D01*
X168063204Y-88245437D01*
X168106588Y-88252308D01*
X168109219Y-88252725D01*
X168114939Y-88253909D01*
X168160081Y-88265500D01*
X168180116Y-88265500D01*
X168199514Y-88267026D01*
X168219294Y-88270159D01*
X168219295Y-88270160D01*
X168219295Y-88270159D01*
X168219296Y-88270160D01*
X168265684Y-88265775D01*
X168271522Y-88265500D01*
X170175293Y-88265500D01*
X170242332Y-88285185D01*
X170276866Y-88318374D01*
X170400730Y-88495269D01*
X170564731Y-88659270D01*
X170754718Y-88792301D01*
X170964921Y-88890320D01*
X171188950Y-88950349D01*
X171353985Y-88964787D01*
X171419998Y-88970563D01*
X171420000Y-88970563D01*
X171420002Y-88970563D01*
X171477762Y-88965509D01*
X171651050Y-88950349D01*
X171875079Y-88890320D01*
X172085282Y-88792301D01*
X172275269Y-88659270D01*
X172439270Y-88495269D01*
X172572301Y-88305282D01*
X172670320Y-88095079D01*
X172730349Y-87871050D01*
X172750563Y-87640000D01*
X172730349Y-87408950D01*
X172670320Y-87184921D01*
X172572301Y-86974719D01*
X172572299Y-86974716D01*
X172572298Y-86974714D01*
X172439273Y-86784735D01*
X172439268Y-86784729D01*
X172275269Y-86620730D01*
X172267017Y-86614952D01*
X172085282Y-86487699D01*
X171875079Y-86389680D01*
X171875076Y-86389679D01*
X171875074Y-86389678D01*
X171651051Y-86329651D01*
X171651044Y-86329650D01*
X171420002Y-86309437D01*
X171419998Y-86309437D01*
X171188955Y-86329650D01*
X171188948Y-86329651D01*
X170964917Y-86389681D01*
X170754718Y-86487699D01*
X170754714Y-86487701D01*
X170564735Y-86620726D01*
X170564729Y-86620731D01*
X170400731Y-86784729D01*
X170400726Y-86784735D01*
X170276869Y-86961623D01*
X170222292Y-87005248D01*
X170175294Y-87014500D01*
X168549553Y-87014500D01*
X168482514Y-86994815D01*
X168461872Y-86978181D01*
X164123691Y-82640000D01*
X170089939Y-82640000D01*
X170110145Y-82870958D01*
X170110147Y-82870968D01*
X170170148Y-83094900D01*
X170170152Y-83094909D01*
X170268132Y-83305029D01*
X170268133Y-83305031D01*
X170323023Y-83383422D01*
X170323024Y-83383423D01*
X170894070Y-82812376D01*
X170896884Y-82825915D01*
X170966442Y-82960156D01*
X171069638Y-83070652D01*
X171198819Y-83149209D01*
X171250002Y-83163549D01*
X170676575Y-83736975D01*
X170754973Y-83791868D01*
X170965090Y-83889847D01*
X170965099Y-83889851D01*
X171189031Y-83949852D01*
X171189041Y-83949854D01*
X171419999Y-83970061D01*
X171420001Y-83970061D01*
X171650958Y-83949854D01*
X171650968Y-83949852D01*
X171874900Y-83889851D01*
X171874909Y-83889847D01*
X172085030Y-83791867D01*
X172163423Y-83736975D01*
X171591568Y-83165121D01*
X171708458Y-83114349D01*
X171825739Y-83018934D01*
X171912928Y-82895415D01*
X171943354Y-82809802D01*
X172516975Y-83383423D01*
X172571867Y-83305030D01*
X172669847Y-83094909D01*
X172669851Y-83094900D01*
X172729852Y-82870968D01*
X172729854Y-82870958D01*
X172750061Y-82640000D01*
X172750061Y-82639999D01*
X172729854Y-82409041D01*
X172729852Y-82409031D01*
X172669851Y-82185099D01*
X172669847Y-82185090D01*
X172571868Y-81974972D01*
X172516974Y-81896576D01*
X171945929Y-82467622D01*
X171943116Y-82454085D01*
X171873558Y-82319844D01*
X171770362Y-82209348D01*
X171641181Y-82130791D01*
X171589997Y-82116450D01*
X172163423Y-81543024D01*
X172163422Y-81543023D01*
X172085031Y-81488133D01*
X172085029Y-81488132D01*
X171874909Y-81390152D01*
X171874900Y-81390148D01*
X171650968Y-81330147D01*
X171650958Y-81330145D01*
X171420001Y-81309939D01*
X171419999Y-81309939D01*
X171189041Y-81330145D01*
X171189031Y-81330147D01*
X170965099Y-81390148D01*
X170965090Y-81390152D01*
X170754971Y-81488132D01*
X170754969Y-81488133D01*
X170676577Y-81543024D01*
X170676576Y-81543024D01*
X171248431Y-82114878D01*
X171131542Y-82165651D01*
X171014261Y-82261066D01*
X170927072Y-82384585D01*
X170896645Y-82470197D01*
X170323024Y-81896576D01*
X170323024Y-81896577D01*
X170268133Y-81974969D01*
X170268132Y-81974971D01*
X170170152Y-82185090D01*
X170170148Y-82185099D01*
X170110147Y-82409031D01*
X170110145Y-82409041D01*
X170089939Y-82639999D01*
X170089939Y-82640000D01*
X164123691Y-82640000D01*
X161295871Y-79812180D01*
X161262386Y-79750857D01*
X161267370Y-79681165D01*
X161309242Y-79625232D01*
X161374706Y-79600815D01*
X161383552Y-79600499D01*
X162407871Y-79600499D01*
X162407872Y-79600499D01*
X162467483Y-79594091D01*
X162602331Y-79543796D01*
X162717546Y-79457546D01*
X162803796Y-79342331D01*
X162854091Y-79207483D01*
X162860500Y-79147873D01*
X162860499Y-76852128D01*
X162854091Y-76792517D01*
X162803796Y-76657669D01*
X162803795Y-76657668D01*
X162803793Y-76657664D01*
X162717547Y-76542455D01*
X162717544Y-76542452D01*
X162602335Y-76456206D01*
X162602328Y-76456202D01*
X162467482Y-76405908D01*
X162467483Y-76405908D01*
X162451879Y-76404231D01*
X162387328Y-76377493D01*
X162347480Y-76320100D01*
X162342662Y-76261545D01*
X162343894Y-76253768D01*
X162347726Y-76229568D01*
X162348906Y-76223871D01*
X162360500Y-76178719D01*
X162360500Y-76158683D01*
X162362027Y-76139282D01*
X162365160Y-76119504D01*
X162360775Y-76073115D01*
X162360500Y-76067277D01*
X162360500Y-67064452D01*
X162380185Y-66997413D01*
X162432989Y-66951658D01*
X162502147Y-66941714D01*
X162565703Y-66970739D01*
X162572181Y-66976771D01*
X170100174Y-74504764D01*
X170133659Y-74566087D01*
X170132268Y-74624537D01*
X170109653Y-74708941D01*
X170109650Y-74708955D01*
X170089437Y-74939998D01*
X170089437Y-74940001D01*
X170109650Y-75171044D01*
X170109651Y-75171051D01*
X170169678Y-75395074D01*
X170169679Y-75395076D01*
X170169680Y-75395079D01*
X170267699Y-75605282D01*
X170400730Y-75795269D01*
X170564731Y-75959270D01*
X170754718Y-76092301D01*
X170964921Y-76190320D01*
X171188950Y-76250349D01*
X171353985Y-76264787D01*
X171419998Y-76270563D01*
X171420000Y-76270563D01*
X171420002Y-76270563D01*
X171477762Y-76265509D01*
X171651050Y-76250349D01*
X171875079Y-76190320D01*
X172085282Y-76092301D01*
X172275269Y-75959270D01*
X172439270Y-75795269D01*
X172572301Y-75605282D01*
X172670320Y-75395079D01*
X172730349Y-75171050D01*
X172750563Y-74940000D01*
X172730349Y-74708950D01*
X172670320Y-74484921D01*
X172572301Y-74274719D01*
X172572299Y-74274716D01*
X172572298Y-74274714D01*
X172439273Y-74084735D01*
X172439268Y-74084729D01*
X172275269Y-73920730D01*
X172085282Y-73787699D01*
X171875079Y-73689680D01*
X171875076Y-73689679D01*
X171875074Y-73689678D01*
X171651051Y-73629651D01*
X171651044Y-73629650D01*
X171420002Y-73609437D01*
X171419998Y-73609437D01*
X171188955Y-73629650D01*
X171188941Y-73629653D01*
X171104537Y-73652268D01*
X171034687Y-73650605D01*
X170984764Y-73620174D01*
X167168308Y-69803718D01*
X163347219Y-65982628D01*
X163313734Y-65921305D01*
X163310900Y-65894947D01*
X163310900Y-57118137D01*
X163312624Y-57102523D01*
X163312338Y-57102496D01*
X163313072Y-57094733D01*
X163310900Y-57025602D01*
X163310900Y-56996051D01*
X163310900Y-56996050D01*
X163310029Y-56989159D01*
X163309572Y-56983345D01*
X163308109Y-56936774D01*
X163308109Y-56936772D01*
X163302520Y-56917537D01*
X163298574Y-56898484D01*
X163296064Y-56878608D01*
X163278901Y-56835259D01*
X163277014Y-56829746D01*
X163264017Y-56785010D01*
X163264016Y-56785008D01*
X163253821Y-56767769D01*
X163245260Y-56750293D01*
X163237886Y-56731669D01*
X163237886Y-56731667D01*
X163227874Y-56717888D01*
X163210483Y-56693950D01*
X163207300Y-56689105D01*
X163183570Y-56648979D01*
X163183565Y-56648973D01*
X163169405Y-56634813D01*
X163156770Y-56620020D01*
X163144993Y-56603812D01*
X163109093Y-56574113D01*
X163104781Y-56570190D01*
X161887297Y-55352706D01*
X161853812Y-55291383D01*
X161851507Y-55253587D01*
X161869446Y-55060000D01*
X161850481Y-54855343D01*
X161863896Y-54786776D01*
X161912252Y-54736344D01*
X161980198Y-54720061D01*
X162046161Y-54743098D01*
X162061633Y-54756223D01*
X165503581Y-58198171D01*
X165537066Y-58259494D01*
X165539900Y-58285852D01*
X165539900Y-64602655D01*
X165538175Y-64618272D01*
X165538461Y-64618299D01*
X165537726Y-64626065D01*
X165539900Y-64695214D01*
X165539900Y-64724743D01*
X165539901Y-64724760D01*
X165540768Y-64731631D01*
X165541226Y-64737450D01*
X165542690Y-64784024D01*
X165542691Y-64784027D01*
X165548280Y-64803267D01*
X165552224Y-64822311D01*
X165553807Y-64834835D01*
X165554736Y-64842191D01*
X165571890Y-64885519D01*
X165573782Y-64891047D01*
X165586781Y-64935788D01*
X165596980Y-64953034D01*
X165605536Y-64970500D01*
X165612914Y-64989132D01*
X165625928Y-65007045D01*
X165640298Y-65026823D01*
X165643506Y-65031707D01*
X165667227Y-65071816D01*
X165667233Y-65071824D01*
X165681390Y-65085980D01*
X165694027Y-65100775D01*
X165705806Y-65116987D01*
X165724339Y-65132319D01*
X165741709Y-65146688D01*
X165746020Y-65150610D01*
X167925473Y-67330063D01*
X170100174Y-69504764D01*
X170133659Y-69566087D01*
X170132268Y-69624537D01*
X170109653Y-69708941D01*
X170109650Y-69708955D01*
X170089437Y-69939998D01*
X170089437Y-69940001D01*
X170109650Y-70171044D01*
X170109651Y-70171051D01*
X170169678Y-70395074D01*
X170169679Y-70395076D01*
X170169680Y-70395079D01*
X170267699Y-70605282D01*
X170400730Y-70795269D01*
X170564731Y-70959270D01*
X170754718Y-71092301D01*
X170964921Y-71190320D01*
X171188950Y-71250349D01*
X171353985Y-71264787D01*
X171419998Y-71270563D01*
X171420000Y-71270563D01*
X171420002Y-71270563D01*
X171477762Y-71265509D01*
X171651050Y-71250349D01*
X171875079Y-71190320D01*
X172085282Y-71092301D01*
X172275269Y-70959270D01*
X172439270Y-70795269D01*
X172572301Y-70605282D01*
X172670320Y-70395079D01*
X172730349Y-70171050D01*
X172750563Y-69940000D01*
X172730349Y-69708950D01*
X172670320Y-69484921D01*
X172572301Y-69274719D01*
X172572299Y-69274716D01*
X172572298Y-69274714D01*
X172439273Y-69084735D01*
X172439268Y-69084729D01*
X172275269Y-68920730D01*
X172254275Y-68906030D01*
X172085282Y-68787699D01*
X171875079Y-68689680D01*
X171875076Y-68689679D01*
X171875074Y-68689678D01*
X171651051Y-68629651D01*
X171651044Y-68629650D01*
X171420002Y-68609437D01*
X171419998Y-68609437D01*
X171188955Y-68629650D01*
X171188941Y-68629653D01*
X171104537Y-68652268D01*
X171034687Y-68650605D01*
X170984764Y-68620174D01*
X166827219Y-64462628D01*
X166793734Y-64401305D01*
X166790900Y-64374947D01*
X166790900Y-58430000D01*
X167524341Y-58430000D01*
X167544936Y-58665403D01*
X167544938Y-58665413D01*
X167606094Y-58893655D01*
X167606096Y-58893659D01*
X167606097Y-58893663D01*
X167703296Y-59102106D01*
X167705965Y-59107830D01*
X167705967Y-59107834D01*
X167841501Y-59301395D01*
X167841506Y-59301402D01*
X168008597Y-59468493D01*
X168008603Y-59468498D01*
X168194594Y-59598730D01*
X168238219Y-59653307D01*
X168245413Y-59722805D01*
X168213890Y-59785160D01*
X168194595Y-59801880D01*
X168008922Y-59931890D01*
X168008920Y-59931891D01*
X167841891Y-60098920D01*
X167841886Y-60098926D01*
X167706400Y-60292420D01*
X167706399Y-60292422D01*
X167606570Y-60506507D01*
X167606567Y-60506513D01*
X167549364Y-60719999D01*
X167549364Y-60720000D01*
X168446314Y-60720000D01*
X168420507Y-60760156D01*
X168380000Y-60898111D01*
X168380000Y-61041889D01*
X168420507Y-61179844D01*
X168446314Y-61220000D01*
X167549364Y-61220000D01*
X167606567Y-61433486D01*
X167606570Y-61433492D01*
X167706399Y-61647578D01*
X167841894Y-61841082D01*
X168008917Y-62008105D01*
X168195031Y-62138425D01*
X168238656Y-62193003D01*
X168245848Y-62262501D01*
X168214326Y-62324856D01*
X168195031Y-62341575D01*
X168008922Y-62471890D01*
X168008920Y-62471891D01*
X167841891Y-62638920D01*
X167841886Y-62638926D01*
X167706400Y-62832420D01*
X167706399Y-62832422D01*
X167606570Y-63046507D01*
X167606567Y-63046513D01*
X167549364Y-63259999D01*
X167549364Y-63260000D01*
X168446314Y-63260000D01*
X168420507Y-63300156D01*
X168380000Y-63438111D01*
X168380000Y-63581889D01*
X168420507Y-63719844D01*
X168446314Y-63760000D01*
X167549364Y-63760000D01*
X167606567Y-63973486D01*
X167606570Y-63973492D01*
X167706399Y-64187578D01*
X167841894Y-64381082D01*
X168008917Y-64548105D01*
X168202421Y-64683600D01*
X168416507Y-64783429D01*
X168416516Y-64783433D01*
X168630000Y-64840634D01*
X168630000Y-63945501D01*
X168737685Y-63994680D01*
X168844237Y-64010000D01*
X168915763Y-64010000D01*
X169022315Y-63994680D01*
X169130000Y-63945501D01*
X169130000Y-64840633D01*
X169343483Y-64783433D01*
X169343492Y-64783429D01*
X169557578Y-64683600D01*
X169751082Y-64548105D01*
X169918105Y-64381082D01*
X170053600Y-64187578D01*
X170153429Y-63973492D01*
X170153432Y-63973486D01*
X170210636Y-63760000D01*
X169313686Y-63760000D01*
X169339493Y-63719844D01*
X169380000Y-63581889D01*
X169380000Y-63438111D01*
X169339493Y-63300156D01*
X169313686Y-63260000D01*
X170210636Y-63260000D01*
X170210635Y-63259999D01*
X170153432Y-63046513D01*
X170153429Y-63046507D01*
X170053600Y-62832422D01*
X170053599Y-62832420D01*
X169918113Y-62638926D01*
X169918108Y-62638920D01*
X169751082Y-62471894D01*
X169564968Y-62341575D01*
X169521344Y-62286998D01*
X169514151Y-62217499D01*
X169545673Y-62155145D01*
X169564968Y-62138425D01*
X169751082Y-62008105D01*
X169918105Y-61841082D01*
X170053600Y-61647578D01*
X170153429Y-61433492D01*
X170153432Y-61433486D01*
X170210636Y-61220000D01*
X169313686Y-61220000D01*
X169339493Y-61179844D01*
X169380000Y-61041889D01*
X169380000Y-60898111D01*
X169339493Y-60760156D01*
X169313686Y-60720000D01*
X170210636Y-60720000D01*
X170210635Y-60719999D01*
X170153432Y-60506513D01*
X170153429Y-60506507D01*
X170053600Y-60292422D01*
X170053599Y-60292420D01*
X169918113Y-60098926D01*
X169918108Y-60098920D01*
X169751078Y-59931890D01*
X169565405Y-59801879D01*
X169521780Y-59747302D01*
X169514588Y-59677804D01*
X169546110Y-59615449D01*
X169565406Y-59598730D01*
X169664091Y-59529630D01*
X169751401Y-59468495D01*
X169918495Y-59301401D01*
X170054035Y-59107830D01*
X170153903Y-58893663D01*
X170215063Y-58665408D01*
X170235659Y-58430000D01*
X170215063Y-58194592D01*
X170153903Y-57966337D01*
X170054035Y-57752171D01*
X170017062Y-57699367D01*
X169918494Y-57558597D01*
X169751402Y-57391506D01*
X169751396Y-57391501D01*
X169565842Y-57261575D01*
X169522217Y-57206998D01*
X169515023Y-57137500D01*
X169546546Y-57075145D01*
X169565842Y-57058425D01*
X169654921Y-56996051D01*
X169751401Y-56928495D01*
X169918495Y-56761401D01*
X170054035Y-56567830D01*
X170153903Y-56353663D01*
X170215063Y-56125408D01*
X170235659Y-55890000D01*
X170215063Y-55654592D01*
X170153903Y-55426337D01*
X170054035Y-55212171D01*
X169947485Y-55060000D01*
X169918494Y-55018597D01*
X169751402Y-54851506D01*
X169751396Y-54851501D01*
X169565842Y-54721575D01*
X169522217Y-54666998D01*
X169515023Y-54597500D01*
X169546546Y-54535145D01*
X169565842Y-54518425D01*
X169664091Y-54449630D01*
X169751401Y-54388495D01*
X169918495Y-54221401D01*
X170054035Y-54027830D01*
X170153903Y-53813663D01*
X170215063Y-53585408D01*
X170235659Y-53350000D01*
X170215063Y-53114592D01*
X170153903Y-52886337D01*
X170054035Y-52672171D01*
X169947485Y-52520000D01*
X169918494Y-52478597D01*
X169751402Y-52311506D01*
X169751396Y-52311501D01*
X169565842Y-52181575D01*
X169522217Y-52126998D01*
X169515023Y-52057500D01*
X169546546Y-51995145D01*
X169565842Y-51978425D01*
X169664091Y-51909630D01*
X169751401Y-51848495D01*
X169918495Y-51681401D01*
X170054035Y-51487830D01*
X170153903Y-51273663D01*
X170215063Y-51045408D01*
X170235659Y-50810000D01*
X170215063Y-50574592D01*
X170153903Y-50346337D01*
X170054035Y-50132171D01*
X170010917Y-50070591D01*
X169918494Y-49938597D01*
X169751402Y-49771506D01*
X169751396Y-49771501D01*
X169565842Y-49641575D01*
X169522217Y-49586998D01*
X169515023Y-49517500D01*
X169546546Y-49455145D01*
X169565842Y-49438425D01*
X169588026Y-49422891D01*
X169751401Y-49308495D01*
X169918495Y-49141401D01*
X170054035Y-48947830D01*
X170153903Y-48733663D01*
X170215063Y-48505408D01*
X170235659Y-48270000D01*
X170215063Y-48034592D01*
X170153903Y-47806337D01*
X170054035Y-47592171D01*
X169918495Y-47398599D01*
X169796567Y-47276671D01*
X169763084Y-47215351D01*
X169768068Y-47145659D01*
X169809939Y-47089725D01*
X169840915Y-47072810D01*
X169972331Y-47023796D01*
X170087546Y-46937546D01*
X170173796Y-46822331D01*
X170224091Y-46687483D01*
X170230500Y-46627873D01*
X170230499Y-44832128D01*
X170224091Y-44772517D01*
X170207082Y-44726914D01*
X170173797Y-44637671D01*
X170173793Y-44637664D01*
X170087547Y-44522455D01*
X170087544Y-44522452D01*
X169972335Y-44436206D01*
X169972328Y-44436202D01*
X169837482Y-44385908D01*
X169837483Y-44385908D01*
X169777883Y-44379501D01*
X169777881Y-44379500D01*
X169777873Y-44379500D01*
X169777864Y-44379500D01*
X167982129Y-44379500D01*
X167982123Y-44379501D01*
X167922516Y-44385908D01*
X167787671Y-44436202D01*
X167787664Y-44436206D01*
X167672455Y-44522452D01*
X167672452Y-44522455D01*
X167586206Y-44637664D01*
X167586202Y-44637671D01*
X167535908Y-44772517D01*
X167529501Y-44832116D01*
X167529501Y-44832123D01*
X167529500Y-44832135D01*
X167529500Y-46627870D01*
X167529501Y-46627876D01*
X167535908Y-46687483D01*
X167586202Y-46822328D01*
X167586206Y-46822335D01*
X167672452Y-46937544D01*
X167672455Y-46937547D01*
X167787664Y-47023793D01*
X167787671Y-47023797D01*
X167919081Y-47072810D01*
X167975015Y-47114681D01*
X167999432Y-47180145D01*
X167984580Y-47248418D01*
X167963430Y-47276673D01*
X167841503Y-47398600D01*
X167705965Y-47592169D01*
X167705964Y-47592171D01*
X167606098Y-47806335D01*
X167606094Y-47806344D01*
X167544938Y-48034586D01*
X167544936Y-48034596D01*
X167524341Y-48269999D01*
X167524341Y-48270000D01*
X167544936Y-48505403D01*
X167544938Y-48505413D01*
X167606094Y-48733655D01*
X167606096Y-48733659D01*
X167606097Y-48733663D01*
X167705965Y-48947830D01*
X167705967Y-48947834D01*
X167841501Y-49141395D01*
X167841506Y-49141402D01*
X168008597Y-49308493D01*
X168008603Y-49308498D01*
X168194158Y-49438425D01*
X168237783Y-49493002D01*
X168244977Y-49562500D01*
X168213454Y-49624855D01*
X168194158Y-49641575D01*
X168008597Y-49771505D01*
X167841505Y-49938597D01*
X167705965Y-50132169D01*
X167705964Y-50132171D01*
X167606098Y-50346335D01*
X167606094Y-50346344D01*
X167544938Y-50574586D01*
X167544936Y-50574596D01*
X167524341Y-50809999D01*
X167524341Y-50810000D01*
X167544936Y-51045403D01*
X167544938Y-51045413D01*
X167606094Y-51273655D01*
X167606096Y-51273659D01*
X167606097Y-51273663D01*
X167675362Y-51422202D01*
X167705965Y-51487830D01*
X167705967Y-51487834D01*
X167841501Y-51681395D01*
X167841506Y-51681402D01*
X168008597Y-51848493D01*
X168008603Y-51848498D01*
X168194158Y-51978425D01*
X168237783Y-52033002D01*
X168244977Y-52102500D01*
X168213454Y-52164855D01*
X168194158Y-52181575D01*
X168008597Y-52311505D01*
X167841505Y-52478597D01*
X167705965Y-52672169D01*
X167705964Y-52672171D01*
X167606098Y-52886335D01*
X167606094Y-52886344D01*
X167544938Y-53114586D01*
X167544936Y-53114596D01*
X167524341Y-53349999D01*
X167524341Y-53350000D01*
X167544936Y-53585403D01*
X167544938Y-53585413D01*
X167606094Y-53813655D01*
X167606096Y-53813659D01*
X167606097Y-53813663D01*
X167703296Y-54022106D01*
X167705965Y-54027830D01*
X167705967Y-54027834D01*
X167841501Y-54221395D01*
X167841506Y-54221402D01*
X168008597Y-54388493D01*
X168008603Y-54388498D01*
X168194158Y-54518425D01*
X168237783Y-54573002D01*
X168244977Y-54642500D01*
X168213454Y-54704855D01*
X168194158Y-54721575D01*
X168008597Y-54851505D01*
X167841505Y-55018597D01*
X167705965Y-55212169D01*
X167705964Y-55212171D01*
X167606098Y-55426335D01*
X167606094Y-55426344D01*
X167544938Y-55654586D01*
X167544936Y-55654596D01*
X167524341Y-55889999D01*
X167524341Y-55890000D01*
X167544936Y-56125403D01*
X167544938Y-56125413D01*
X167606094Y-56353655D01*
X167606096Y-56353659D01*
X167606097Y-56353663D01*
X167703296Y-56562106D01*
X167705965Y-56567830D01*
X167705967Y-56567834D01*
X167841501Y-56761395D01*
X167841506Y-56761402D01*
X168008597Y-56928493D01*
X168008603Y-56928498D01*
X168194158Y-57058425D01*
X168237783Y-57113002D01*
X168244977Y-57182500D01*
X168213454Y-57244855D01*
X168194158Y-57261575D01*
X168008597Y-57391505D01*
X167841505Y-57558597D01*
X167705965Y-57752169D01*
X167705964Y-57752171D01*
X167606098Y-57966335D01*
X167606094Y-57966344D01*
X167544938Y-58194586D01*
X167544936Y-58194596D01*
X167524341Y-58429999D01*
X167524341Y-58430000D01*
X166790900Y-58430000D01*
X166790900Y-58058142D01*
X166792624Y-58042522D01*
X166792339Y-58042495D01*
X166793073Y-58034733D01*
X166792574Y-58018840D01*
X166790900Y-57965571D01*
X166790900Y-57936050D01*
X166790031Y-57929179D01*
X166789573Y-57923352D01*
X166788110Y-57876773D01*
X166782519Y-57857530D01*
X166778573Y-57838478D01*
X166776064Y-57818608D01*
X166758904Y-57775267D01*
X166757024Y-57769779D01*
X166744018Y-57725010D01*
X166733822Y-57707770D01*
X166725261Y-57690294D01*
X166717887Y-57671670D01*
X166717886Y-57671668D01*
X166690479Y-57633945D01*
X166687288Y-57629086D01*
X166663572Y-57588983D01*
X166663565Y-57588974D01*
X166649406Y-57574815D01*
X166636768Y-57560019D01*
X166624994Y-57543813D01*
X166589088Y-57514109D01*
X166584776Y-57510186D01*
X161887297Y-52812706D01*
X161853812Y-52751383D01*
X161851507Y-52713587D01*
X161869446Y-52520000D01*
X161849704Y-52306952D01*
X161841200Y-52277065D01*
X161791153Y-52101164D01*
X161791150Y-52101158D01*
X161769411Y-52057500D01*
X161695781Y-51909630D01*
X161566841Y-51738886D01*
X161408722Y-51594742D01*
X161408716Y-51594738D01*
X161408713Y-51594736D01*
X161226813Y-51482108D01*
X161226807Y-51482106D01*
X161027297Y-51404815D01*
X160816980Y-51365500D01*
X160603020Y-51365500D01*
X160392703Y-51404815D01*
X160347812Y-51422206D01*
X160193192Y-51482106D01*
X160193186Y-51482108D01*
X160011286Y-51594736D01*
X160011283Y-51594738D01*
X160011279Y-51594740D01*
X160011278Y-51594742D01*
X159916216Y-51681402D01*
X159853158Y-51738887D01*
X159724219Y-51909629D01*
X159628849Y-52101158D01*
X159628846Y-52101164D01*
X159570296Y-52306949D01*
X159570295Y-52306952D01*
X159550554Y-52519999D01*
X159550554Y-52520000D01*
X159570295Y-52733047D01*
X159570296Y-52733050D01*
X159628846Y-52938835D01*
X159628849Y-52938841D01*
X159724219Y-53130370D01*
X159853159Y-53301114D01*
X160011278Y-53445258D01*
X160011283Y-53445261D01*
X160011286Y-53445263D01*
X160193186Y-53557891D01*
X160193187Y-53557891D01*
X160193190Y-53557893D01*
X160392703Y-53635185D01*
X160568845Y-53668111D01*
X160631125Y-53699779D01*
X160666398Y-53760092D01*
X160663464Y-53829900D01*
X160623255Y-53887040D01*
X160568845Y-53911888D01*
X160392703Y-53944815D01*
X160302957Y-53979583D01*
X160193192Y-54022106D01*
X160193186Y-54022108D01*
X160011286Y-54134736D01*
X160011283Y-54134738D01*
X160011279Y-54134740D01*
X160011278Y-54134742D01*
X159916216Y-54221402D01*
X159853158Y-54278887D01*
X159724219Y-54449629D01*
X159628849Y-54641158D01*
X159628846Y-54641164D01*
X159570296Y-54846949D01*
X159570295Y-54846952D01*
X159550554Y-55059999D01*
X159550554Y-55060000D01*
X159570295Y-55273047D01*
X159570296Y-55273050D01*
X159628846Y-55478835D01*
X159628849Y-55478841D01*
X159724219Y-55670370D01*
X159853159Y-55841114D01*
X160011278Y-55985258D01*
X160011283Y-55985261D01*
X160011286Y-55985263D01*
X160193186Y-56097891D01*
X160193187Y-56097891D01*
X160193190Y-56097893D01*
X160392703Y-56175185D01*
X160568845Y-56208111D01*
X160631125Y-56239779D01*
X160666398Y-56300092D01*
X160663464Y-56369900D01*
X160623255Y-56427040D01*
X160568845Y-56451888D01*
X160392703Y-56484815D01*
X160266533Y-56533693D01*
X160193192Y-56562106D01*
X160193186Y-56562108D01*
X160011286Y-56674736D01*
X160011283Y-56674738D01*
X160011279Y-56674740D01*
X160011278Y-56674742D01*
X159853159Y-56818886D01*
X159853158Y-56818887D01*
X159724219Y-56989629D01*
X159628849Y-57181158D01*
X159628846Y-57181164D01*
X159570296Y-57386949D01*
X159570295Y-57386952D01*
X159550554Y-57599999D01*
X159550554Y-57600000D01*
X159570295Y-57813047D01*
X159570296Y-57813050D01*
X159628846Y-58018835D01*
X159628849Y-58018841D01*
X159718145Y-58198171D01*
X159724219Y-58210370D01*
X159853159Y-58381114D01*
X160011278Y-58525258D01*
X160011283Y-58525261D01*
X160011286Y-58525263D01*
X160193186Y-58637891D01*
X160193187Y-58637891D01*
X160193190Y-58637893D01*
X160392703Y-58715185D01*
X160568845Y-58748111D01*
X160631125Y-58779779D01*
X160666398Y-58840092D01*
X160663464Y-58909900D01*
X160623255Y-58967040D01*
X160568845Y-58991888D01*
X160392703Y-59024815D01*
X160266533Y-59073693D01*
X160193192Y-59102106D01*
X160193186Y-59102108D01*
X160011286Y-59214736D01*
X160011283Y-59214738D01*
X160011279Y-59214740D01*
X160011278Y-59214742D01*
X159916216Y-59301402D01*
X159853158Y-59358887D01*
X159724219Y-59529629D01*
X159628849Y-59721158D01*
X159628846Y-59721164D01*
X159570296Y-59926949D01*
X159570295Y-59926952D01*
X159550554Y-60139999D01*
X159550554Y-60140000D01*
X159570295Y-60353047D01*
X159570296Y-60353050D01*
X159628846Y-60558835D01*
X159628849Y-60558840D01*
X159724219Y-60750370D01*
X159853159Y-60921114D01*
X160011278Y-61065258D01*
X160011283Y-61065261D01*
X160011286Y-61065263D01*
X160193186Y-61177891D01*
X160193187Y-61177891D01*
X160193190Y-61177893D01*
X160392703Y-61255185D01*
X160568845Y-61288111D01*
X160631125Y-61319779D01*
X160666398Y-61380092D01*
X160663464Y-61449900D01*
X160623255Y-61507040D01*
X160568845Y-61531888D01*
X160392703Y-61564815D01*
X160266533Y-61613693D01*
X160193192Y-61642106D01*
X160193186Y-61642108D01*
X160011286Y-61754736D01*
X160011283Y-61754738D01*
X160011279Y-61754740D01*
X160011278Y-61754742D01*
X159916567Y-61841082D01*
X159853158Y-61898887D01*
X159724219Y-62069629D01*
X159628849Y-62261158D01*
X159628846Y-62261164D01*
X159570296Y-62466949D01*
X159570295Y-62466952D01*
X159550554Y-62679999D01*
X159550554Y-62680000D01*
X159570295Y-62893047D01*
X159570296Y-62893050D01*
X159628846Y-63098835D01*
X159628849Y-63098841D01*
X159668864Y-63179202D01*
X159724219Y-63290370D01*
X159853159Y-63461114D01*
X160011278Y-63605258D01*
X160011283Y-63605261D01*
X160011286Y-63605263D01*
X160193186Y-63717891D01*
X160193187Y-63717891D01*
X160193190Y-63717893D01*
X160392703Y-63795185D01*
X160570205Y-63828366D01*
X160632485Y-63860033D01*
X160667758Y-63920345D01*
X160664824Y-63990154D01*
X160624615Y-64047294D01*
X160570204Y-64072143D01*
X160392837Y-64105299D01*
X160193415Y-64182555D01*
X160090085Y-64246533D01*
X160665599Y-64822046D01*
X160584852Y-64834835D01*
X160471955Y-64892359D01*
X160382359Y-64981955D01*
X160324835Y-65094852D01*
X160312046Y-65175598D01*
X159733980Y-64597532D01*
X159733979Y-64597532D01*
X159724646Y-64609894D01*
X159724644Y-64609896D01*
X159629321Y-64801330D01*
X159629315Y-64801345D01*
X159570789Y-65007043D01*
X159570788Y-65007045D01*
X159551056Y-65219999D01*
X159551056Y-65220000D01*
X159570788Y-65432954D01*
X159570789Y-65432956D01*
X159629315Y-65638654D01*
X159629321Y-65638669D01*
X159724646Y-65830106D01*
X159733980Y-65842466D01*
X160312046Y-65264400D01*
X160324835Y-65345148D01*
X160382359Y-65458045D01*
X160471955Y-65547641D01*
X160584852Y-65605165D01*
X160665597Y-65617953D01*
X160090085Y-66193465D01*
X160193415Y-66257444D01*
X160193416Y-66257445D01*
X160392836Y-66334700D01*
X160570204Y-66367856D01*
X160632485Y-66399524D01*
X160667758Y-66459836D01*
X160664824Y-66529644D01*
X160624616Y-66586785D01*
X160570205Y-66611634D01*
X160483851Y-66627776D01*
X160392703Y-66644815D01*
X160310502Y-66676660D01*
X160193192Y-66722106D01*
X160193186Y-66722108D01*
X160011286Y-66834736D01*
X160011283Y-66834738D01*
X160011279Y-66834740D01*
X160011278Y-66834742D01*
X159979108Y-66864069D01*
X159853158Y-66978887D01*
X159724219Y-67149629D01*
X159628849Y-67341158D01*
X159628846Y-67341164D01*
X159570296Y-67546949D01*
X159570295Y-67546952D01*
X159550554Y-67759999D01*
X159550554Y-67760000D01*
X159570295Y-67973047D01*
X159570296Y-67973050D01*
X159628846Y-68178835D01*
X159628849Y-68178841D01*
X159639747Y-68200727D01*
X159724219Y-68370370D01*
X159853159Y-68541114D01*
X160011278Y-68685258D01*
X160011283Y-68685261D01*
X160011286Y-68685263D01*
X160193186Y-68797891D01*
X160193187Y-68797891D01*
X160193190Y-68797893D01*
X160392703Y-68875185D01*
X160568845Y-68908111D01*
X160631125Y-68939779D01*
X160666398Y-69000092D01*
X160663464Y-69069900D01*
X160623255Y-69127040D01*
X160568845Y-69151888D01*
X160392703Y-69184815D01*
X160310502Y-69216660D01*
X160193192Y-69262106D01*
X160193186Y-69262108D01*
X160011286Y-69374736D01*
X160011283Y-69374738D01*
X160011279Y-69374740D01*
X160011278Y-69374742D01*
X159853159Y-69518886D01*
X159853158Y-69518887D01*
X159724219Y-69689629D01*
X159628849Y-69881158D01*
X159628846Y-69881164D01*
X159570296Y-70086949D01*
X159570295Y-70086952D01*
X159550554Y-70299999D01*
X159550554Y-70300000D01*
X159570295Y-70513047D01*
X159570296Y-70513050D01*
X159628846Y-70718835D01*
X159628849Y-70718841D01*
X159647570Y-70756437D01*
X159724219Y-70910370D01*
X159853159Y-71081114D01*
X160011278Y-71225258D01*
X160011283Y-71225261D01*
X160011286Y-71225263D01*
X160193186Y-71337891D01*
X160193187Y-71337891D01*
X160193190Y-71337893D01*
X160392703Y-71415185D01*
X160603020Y-71454500D01*
X160603022Y-71454500D01*
X160816977Y-71454500D01*
X160816980Y-71454500D01*
X160962719Y-71427256D01*
X161032229Y-71434287D01*
X161086908Y-71477784D01*
X161109391Y-71543938D01*
X161109500Y-71549145D01*
X161109500Y-75789246D01*
X161089815Y-75856285D01*
X161073181Y-75876927D01*
X160876208Y-76073899D01*
X160863951Y-76083720D01*
X160864134Y-76083941D01*
X160858123Y-76088913D01*
X160810772Y-76139336D01*
X160789889Y-76160219D01*
X160789877Y-76160232D01*
X160785621Y-76165717D01*
X160781837Y-76170147D01*
X160749937Y-76204118D01*
X160749936Y-76204120D01*
X160740284Y-76221676D01*
X160729610Y-76237926D01*
X160717329Y-76253761D01*
X160717324Y-76253768D01*
X160698815Y-76296539D01*
X160696244Y-76301785D01*
X160677854Y-76335237D01*
X160628308Y-76384501D01*
X160569192Y-76399500D01*
X160112129Y-76399500D01*
X160112123Y-76399501D01*
X160052516Y-76405908D01*
X159917671Y-76456202D01*
X159917664Y-76456206D01*
X159802455Y-76542452D01*
X159802452Y-76542455D01*
X159716206Y-76657664D01*
X159716202Y-76657671D01*
X159665908Y-76792517D01*
X159659501Y-76852116D01*
X159659501Y-76852123D01*
X159659500Y-76852135D01*
X159659500Y-77876447D01*
X159639815Y-77943486D01*
X159587011Y-77989241D01*
X159517853Y-77999185D01*
X159454297Y-77970160D01*
X159447819Y-77964128D01*
X159381819Y-77898128D01*
X159348334Y-77836805D01*
X159345500Y-77810447D01*
X159345500Y-76012742D01*
X159347224Y-75997122D01*
X159346939Y-75997095D01*
X159347673Y-75989333D01*
X159345500Y-75920172D01*
X159345500Y-75890656D01*
X159345500Y-75890650D01*
X159344631Y-75883779D01*
X159344173Y-75877952D01*
X159344141Y-75876927D01*
X159342710Y-75831373D01*
X159337119Y-75812130D01*
X159333173Y-75793078D01*
X159330664Y-75773208D01*
X159313504Y-75729867D01*
X159311624Y-75724379D01*
X159298618Y-75679610D01*
X159288422Y-75662370D01*
X159279861Y-75644894D01*
X159272487Y-75626270D01*
X159272486Y-75626268D01*
X159245079Y-75588545D01*
X159241888Y-75583686D01*
X159218172Y-75543583D01*
X159218165Y-75543574D01*
X159204006Y-75529415D01*
X159191368Y-75514619D01*
X159179594Y-75498413D01*
X159143688Y-75468709D01*
X159139376Y-75464786D01*
X146647297Y-62972706D01*
X146613812Y-62911383D01*
X146611507Y-62873587D01*
X146629446Y-62680000D01*
X146609704Y-62466952D01*
X146586053Y-62383826D01*
X146551153Y-62261164D01*
X146551150Y-62261158D01*
X146455781Y-62069630D01*
X146326841Y-61898886D01*
X146168722Y-61754742D01*
X146168716Y-61754738D01*
X146168713Y-61754736D01*
X145986813Y-61642108D01*
X145986807Y-61642106D01*
X145787297Y-61564815D01*
X145611153Y-61531888D01*
X145548874Y-61500221D01*
X145513601Y-61439908D01*
X145516535Y-61370100D01*
X145556744Y-61312960D01*
X145611152Y-61288112D01*
X145787297Y-61255185D01*
X145986810Y-61177893D01*
X146168722Y-61065258D01*
X146326841Y-60921114D01*
X146455781Y-60750370D01*
X146551151Y-60558840D01*
X146551151Y-60558837D01*
X146551153Y-60558835D01*
X146609703Y-60353050D01*
X146609704Y-60353047D01*
X146629446Y-60140000D01*
X146629446Y-60139999D01*
X146609704Y-59926952D01*
X146609703Y-59926949D01*
X146551153Y-59721164D01*
X146551150Y-59721158D01*
X146517364Y-59653307D01*
X146455781Y-59529630D01*
X146326841Y-59358886D01*
X146168722Y-59214742D01*
X146168716Y-59214738D01*
X146168713Y-59214736D01*
X145986813Y-59102108D01*
X145986807Y-59102106D01*
X145787297Y-59024815D01*
X145611153Y-58991888D01*
X145548874Y-58960221D01*
X145513601Y-58899908D01*
X145516535Y-58830100D01*
X145556744Y-58772960D01*
X145611152Y-58748112D01*
X145787297Y-58715185D01*
X145986810Y-58637893D01*
X146168722Y-58525258D01*
X146326841Y-58381114D01*
X146455781Y-58210370D01*
X146551151Y-58018840D01*
X146551151Y-58018837D01*
X146551153Y-58018835D01*
X146593447Y-57870185D01*
X146609704Y-57813048D01*
X146629446Y-57600000D01*
X146624239Y-57543813D01*
X146609704Y-57386952D01*
X146609703Y-57386949D01*
X146551153Y-57181164D01*
X146551150Y-57181158D01*
X146519769Y-57118137D01*
X146455781Y-56989630D01*
X146326841Y-56818886D01*
X146168722Y-56674742D01*
X146168716Y-56674738D01*
X146168713Y-56674736D01*
X145986813Y-56562108D01*
X145986807Y-56562106D01*
X145787297Y-56484815D01*
X145611153Y-56451888D01*
X145548874Y-56420221D01*
X145513601Y-56359908D01*
X145516535Y-56290100D01*
X145556744Y-56232960D01*
X145611152Y-56208112D01*
X145787297Y-56175185D01*
X145986810Y-56097893D01*
X146168722Y-55985258D01*
X146326841Y-55841114D01*
X146455781Y-55670370D01*
X146551151Y-55478840D01*
X146551151Y-55478837D01*
X146551153Y-55478835D01*
X146587039Y-55352706D01*
X146609704Y-55273048D01*
X146629446Y-55060000D01*
X146609704Y-54846952D01*
X146601200Y-54817065D01*
X146551153Y-54641164D01*
X146551150Y-54641158D01*
X146529411Y-54597500D01*
X146455781Y-54449630D01*
X146326841Y-54278886D01*
X146168722Y-54134742D01*
X146138094Y-54115778D01*
X146019396Y-54042283D01*
X145972761Y-53990255D01*
X145961657Y-53921273D01*
X145978798Y-53878094D01*
X145976302Y-53876722D01*
X145980062Y-53869882D01*
X145989713Y-53852324D01*
X146000396Y-53836061D01*
X146012673Y-53820236D01*
X146031181Y-53777461D01*
X146033743Y-53772233D01*
X146052147Y-53738757D01*
X146101695Y-53689496D01*
X146160807Y-53674499D01*
X146171871Y-53674499D01*
X146171872Y-53674499D01*
X146231483Y-53668091D01*
X146366331Y-53617796D01*
X146481546Y-53531546D01*
X146567796Y-53416331D01*
X146618091Y-53281483D01*
X146624500Y-53221873D01*
X146624499Y-51818128D01*
X146618091Y-51758517D01*
X146610769Y-51738887D01*
X146567797Y-51623671D01*
X146567793Y-51623664D01*
X146481547Y-51508455D01*
X146481544Y-51508452D01*
X146366335Y-51422206D01*
X146366328Y-51422202D01*
X146231482Y-51371908D01*
X146231483Y-51371908D01*
X146171883Y-51365501D01*
X146171881Y-51365500D01*
X146171873Y-51365500D01*
X146171864Y-51365500D01*
X144768129Y-51365500D01*
X144768123Y-51365501D01*
X144708516Y-51371908D01*
X144573671Y-51422202D01*
X144573664Y-51422206D01*
X144458455Y-51508452D01*
X144458452Y-51508455D01*
X144372206Y-51623664D01*
X144372202Y-51623671D01*
X144321908Y-51758517D01*
X144315501Y-51818116D01*
X144315501Y-51818123D01*
X144315500Y-51818135D01*
X144315500Y-53221870D01*
X144315501Y-53221876D01*
X144321908Y-53281483D01*
X144372202Y-53416328D01*
X144372204Y-53416331D01*
X144434608Y-53499692D01*
X144459026Y-53565155D01*
X144444175Y-53633429D01*
X144423023Y-53661684D01*
X142682508Y-55402199D01*
X142670251Y-55412020D01*
X142670434Y-55412241D01*
X142664423Y-55417213D01*
X142617072Y-55467636D01*
X142596189Y-55488519D01*
X142596177Y-55488532D01*
X142591921Y-55494017D01*
X142588137Y-55498447D01*
X142556237Y-55532418D01*
X142556236Y-55532420D01*
X142546584Y-55549976D01*
X142535910Y-55566226D01*
X142523629Y-55582061D01*
X142523624Y-55582068D01*
X142505115Y-55624838D01*
X142502545Y-55630084D01*
X142480103Y-55670906D01*
X142475122Y-55690307D01*
X142468821Y-55708710D01*
X142460862Y-55727102D01*
X142460861Y-55727105D01*
X142453571Y-55773127D01*
X142452387Y-55778846D01*
X142440801Y-55823972D01*
X142440800Y-55823982D01*
X142440800Y-55844016D01*
X142439273Y-55863415D01*
X142436140Y-55883194D01*
X142436140Y-55883195D01*
X110460500Y-55883195D01*
X110460500Y-50934000D01*
X110480185Y-50866961D01*
X110532989Y-50821206D01*
X110584500Y-50810000D01*
X118080000Y-50810000D01*
X118080000Y-43314500D01*
X118099685Y-43247461D01*
X118152489Y-43201706D01*
X118204000Y-43190500D01*
X176376000Y-43190500D01*
X176443039Y-43210185D01*
G37*
%TD.AperFunction*%
%TD*%
M02*
